<svg id="visual" viewBox="0 0 900 600" width="900" height="600" xmlns="http://www.w3.org/2000/svg" xmlns:xlink="http://www.w3.org/1999/xlink" version="1.1"><g><g transform="translate(61 83)"><path d="M0 -60L51.9 -30L51.9 30L0 60L-51.9 30L-51.9 -30Z" fill="#1fb2a6"></path></g><g transform="translate(668 505)"><path d="M0 -41L35.5 -20.5L35.5 20.5L0 41L-35.5 20.5L-35.5 -20.5Z" fill="#1fb2a6"></path></g><g transform="translate(34 274)"><path d="M0 -47L40.7 -23.5L40.7 23.5L0 47L-40.7 23.5L-40.7 -23.5Z" fill="#1fb2a6"></path></g><g transform="translate(455 421)"><path d="M0 -54L46.8 -27L46.8 27L0 54L-46.8 27L-46.8 -27Z" fill="#1fb2a6"></path></g><g transform="translate(436 6)"><path d="M0 -43L37.2 -21.5L37.2 21.5L0 43L-37.2 21.5L-37.2 -21.5Z" fill="#1fb2a6"></path></g><g transform="translate(303 97)"><path d="M0 -33L28.6 -16.5L28.6 16.5L0 33L-28.6 16.5L-28.6 -16.5Z" fill="#1fb2a6"></path></g><g transform="translate(658 111)"><path d="M0 -47L40.7 -23.5L40.7 23.5L0 47L-40.7 23.5L-40.7 -23.5Z" fill="#1fb2a6"></path></g><g transform="translate(469 565)"><path d="M0 -47L40.7 -23.5L40.7 23.5L0 47L-40.7 23.5L-40.7 -23.5Z" fill="#1fb2a6"></path></g><g transform="translate(271 370)"><path d="M0 -43L37.2 -21.5L37.2 21.5L0 43L-37.2 21.5L-37.2 -21.5Z" fill="#1fb2a6"></path></g><g transform="translate(741 400)"><path d="M0 -51L44.2 -25.5L44.2 25.5L0 51L-44.2 25.5L-44.2 -25.5Z" fill="#1fb2a6"></path></g><g transform="translate(742 223)"><path d="M0 -46L39.8 -23L39.8 23L0 46L-39.8 23L-39.8 -23Z" fill="#1fb2a6"></path></g><g transform="translate(862 18)"><path d="M0 -42L36.4 -21L36.4 21L0 42L-36.4 21L-36.4 -21Z" fill="#1fb2a6"></path></g><g transform="translate(618 359)"><path d="M0 -39L33.8 -19.5L33.8 19.5L0 39L-33.8 19.5L-33.8 -19.5Z" fill="#1fb2a6"></path></g><g transform="translate(872 537)"><path d="M0 -34L29.4 -17L29.4 17L0 34L-29.4 17L-29.4 -17Z" fill="#1fb2a6"></path></g><g transform="translate(203 206)"><path d="M0 -55L47.6 -27.5L47.6 27.5L0 55L-47.6 27.5L-47.6 -27.5Z" fill="#1fb2a6"></path></g><g transform="translate(504 224)"><path d="M0 -49L42.4 -24.5L42.4 24.5L0 49L-42.4 24.5L-42.4 -24.5Z" fill="#1fb2a6"></path></g><g transform="translate(83 596)"><path d="M0 -29L25.1 -14.5L25.1 14.5L0 29L-25.1 14.5L-25.1 -14.5Z" fill="#1fb2a6"></path></g><g transform="translate(32 466)"><path d="M0 -39L33.8 -19.5L33.8 19.5L0 39L-33.8 19.5L-33.8 -19.5Z" fill="#1fb2a6"></path></g><g transform="translate(283 514)"><path d="M0 -52L45 -26L45 26L0 52L-45 26L-45 -26Z" fill="#1fb2a6"></path></g><g transform="translate(898 355)"><path d="M0 -51L44.2 -25.5L44.2 25.5L0 51L-44.2 25.5L-44.2 -25.5Z" fill="#1fb2a6"></path></g><g transform="translate(385 198)"><path d="M0 -35L30.3 -17.5L30.3 17.5L0 35L-30.3 17.5L-30.3 -17.5Z" fill="#1fb2a6"></path></g><g transform="translate(864 171)"><path d="M0 -30L26 -15L26 15L0 30L-26 15L-26 -15Z" fill="#1fb2a6"></path></g><g transform="translate(138 341)"><path d="M0 -42L36.4 -21L36.4 21L0 42L-36.4 21L-36.4 -21Z" fill="#1fb2a6"></path></g><g transform="translate(730 3)"><path d="M0 -58L50.2 -29L50.2 29L0 58L-50.2 29L-50.2 -29Z" fill="#1fb2a6"></path></g><g transform="translate(185 65)"><path d="M0 -34L29.4 -17L29.4 17L0 34L-29.4 17L-29.4 -17Z" fill="#1fb2a6"></path></g><g transform="translate(545 68)"><path d="M0 -33L28.6 -16.5L28.6 16.5L0 33L-28.6 16.5L-28.6 -16.5Z" fill="#1fb2a6"></path></g><g transform="translate(157 489)"><path d="M0 -53L45.9 -26.5L45.9 26.5L0 53L-45.9 26.5L-45.9 -26.5Z" fill="#1fb2a6"></path></g><g transform="translate(760 597)"><path d="M0 -38L32.9 -19L32.9 19L0 38L-32.9 19L-32.9 -19Z" fill="#1fb2a6"></path></g></g></svg>