<svg xmlns="http://www.w3.org/2000/svg" version="1.1" xmlns:xlink="http://www.w3.org/1999/xlink" xmlns:svgjs="http://svgjs.dev/svgjs" viewBox="0 0 800 800"><defs><linearGradient x1="50%" y1="0%" x2="50%" y2="100%" id="ccchaos-grad"><stop stop-color="hsl(206, 75%, 49%)" stop-opacity="1" offset="0%"></stop><stop stop-color="hsl(331, 90%, 56%)" stop-opacity="1" offset="100%"></stop></linearGradient></defs><g stroke-width="2" stroke="url(#ccchaos-grad)" fill="none" stroke-linecap="round"><path d="M416.46 -54.97C424.5 -54.07 432.45 -52.83 440.3 -51.28 448.14 -49.64 455.87 -47.76 463.49 -45.67 471.1 -43.59 478.58 -41.36 485.93 -39.03 493.26 -36.79 500.45 -34.5 507.49 -32.17 514.5 -30.01 521.35 -27.85 528.02 -25.71 534.65 -23.76 541.1 -21.84 547.36 -19.94 553.56 -18.24 559.56 -16.54 565.35 -14.84 573.84 -12.51 589.61 -7.69 596.89 -5.07 603.88 -2.32 616.73 4.23 622.66 8.16 628.43 12.54 639.38 23 644.7 29.11 648.35 33.46 651.99 38.11 655.66 43.05 659.53 48.16 663.48 53.54 667.56 59.17 671.91 64.94 676.44 70.95 681.17 77.16 686.25 83.47 691.58 89.96 697.18 96.6 703.16 103.31 709.43 110.14 715.99 117.07 722.92 124.02 730.14 131.05 737.61 138.14 745.39 145.21 753.38 152.32 761.53 159.46 769.85 166.56 778.24 173.67 786.62 180.8 795 187.86 803.24 194.93 811.26 202 819.06 209 826.47 216 833.42 223.01 839.93 229.95 845.83 236.9 851.03 243.86 855.61 250.76 859.39 257.68 862.31 264.63 864.51 271.52 865.81 278.46 866.2 285.44 865.88 292.37 864.69 299.36 862.67 306.41 860.1 313.42 856.82 320.51 852.93 327.67 848.76 334.81 844.18 342.03 839.31 349.35 834.51 356.65 829.67 364.05 824.92 371.55 820.61 379.05 816.64 386.65 813.11 394.37 810.32 402.08 808.16 409.91 806.68 417.86 806.13 425.8 806.33 433.78 807.25 441.78 809.04 449.78 811.46 457.8 814.41 465.84 818.03 473.88 821.99 481.93 826.19 489.98 830.72 498.03 835.23 506.08 839.62 514.11 843.97 522.13 847.96 530.11 851.48 538.06 854.64 545.97 857.15 553.82 858.93 561.58 860.13 569.3 860.49 576.91 860 584.39 858.82 591.79 856.75 599.04 853.84 606.1 850.24 613.05 845.85 619.78 840.72 626.27 835.02 632.62 828.69 638.69 821.82 644.46 814.56 650.05 806.89 655.32 798.89 660.24 790.72 664.97 782.37 669.33 773.9 673.31 765.45 677.1 757.02 680.52 748.66 683.56 740.47 686.44 732.44 688.97 724.6 691.18 717.05 693.28 709.74 695.11 702.68 696.7 695.96 698.3 689.5 699.75 683.3 701.08 674.63 703.31 658.86 708.48 651.63 711.76 644.9 716.03 632.1 727.34 625.87 734.59 621.83 740.19 617.73 746.3 613.55 752.9 609.44 760.04 605.2 767.61 600.83 775.54 596.48 783.84 591.96 792.36 587.27 801 582.57 809.74 577.67 818.38 572.58 826.8 567.46 834.98 562.13 842.69 556.6 849.82 551.04 856.35 545.26 862.07 539.29 866.86 533.28 870.81 527.08 873.69 520.68 875.45 514.25 876.26 507.64 875.93 500.85 874.48 494.04 872.18 487.06 868.88 479.93 864.69 472.77 859.96 465.46 854.59 458.02 848.74 450.56 842.82 442.97 836.76 435.25 830.75 427.53 825.18 419.68 820.01 411.73 815.37 403.77 811.64 395.8 808.72 387.83 806.69 379.85 805.74 371.88 805.71 363.91 806.55 355.96 808.41 348.01 811.01 340.07 814.22 332.15 818.16 324.25 822.45 316.38 826.95 308.51 831.74 300.68 836.42 292.89 840.85 285.12 845.1 277.38 848.81 269.7 851.86 262.04 854.37 254.44 856.01 246.9 856.74 239.39 856.7 231.96 855.65 224.6 853.6 217.28 850.73 210.05 846.89 202.92 842.14 195.84 836.67 188.86 830.42 182 823.47 175.19 816.01 168.51 808.04 161.97 799.65 155.48 791.03 149.14 782.18 142.95 773.21 136.82 764.26 130.84 755.34 125.03 746.55 119.28 737.98 113.69 729.64 108.26 721.59 102.9 713.9 97.69 706.55 92.65 699.55 87.65 692.98 82.81 686.78 78.12 680.92 73.46 675.48 68.94 670.36 64.56 665.52 58.07 658.93 45.68 647.12 39.76 641.67 33.89 636.55 22.58 626.31 17.13 621 11.72 615.6 1.36 603.82 -3.55 597.36 -8.36 590.6 -17.27 575.75 -21.31 567.67 -23.93 562.13 -26.37 556.37 -28.61 550.37 -30.82 544.32 -32.84 538.05 -34.65 531.58 -36.43 525.07 -38.01 518.36 -39.39 511.48 -40.74 504.57 -41.9 497.49 -42.87 490.25 -43.84 483 -44.62 475.61 -45.24 468.08 -45.86 460.54 -46.33 452.88 -46.63 445.11 -46.96 437.33 -47.13 429.44 -47.15 421.45 -47.2 413.46 -47.08 405.47 -46.81 397.47 -46.56 389.48 -46.14 381.49 -45.55 373.51 -44.96 365.52 -44.19 357.54 -43.22 349.57 -42.24 341.6 -41.06 333.63 -39.68 325.67 -38.27 317.71 -36.66 309.75 -34.83 301.8 -32.98 293.85 -30.93 285.9 -28.68 277.97 -26.41 270.03 -23.95 262.1 -21.32 254.2 -18.68 246.29 -15.88 238.41 -12.92 230.56 -9.98 222.71 -6.9 214.91 -3.69 207.16 -0.52 199.44 2.76 191.77 6.17 184.19 9.53 176.64 13 169.2 16.57 161.86 20.09 154.59 23.72 147.45 27.46 140.46 31.15 133.56 34.97 126.84 38.89 120.3 42.8 113.88 46.83 107.66 50.99 101.67 55.15 95.82 59.46 90.21 63.91 84.85 68.39 79.64 73.03 74.68 77.82 70 82.66 65.45 87.66 61.16 92.83 57.14 98.06 53.24 103.46 49.58 109.03 46.16 114.67 42.82 120.47 39.69 126.43 36.75 132.46 33.84 138.64 31.08 144.97 28.47 151.37 25.81 157.91 23.25 164.58 20.77 171.31 18.18 178.16 15.63 185.12 13.1 192.13 10.41 199.24 7.72 206.45 5.01 213.7 2.11 221.03 -0.82 228.44 -3.78 235.87 -6.93 243.38 -10.1 250.95 -13.28 258.53 -16.61 266.18 -19.93 273.87 -23.21 281.58 -26.57 289.34 -29.85 297.13 -33.01 304.94 -36.17 312.78 -39.16 320.66 -41.93 328.54 -44.63 336.45 -47.05 344.39 -49.18 352.34 -51.15 360.31 -52.77 368.3 -54.03 376.3 -55.08 384.31 -55.74 392.34 -56 400.37 -56.05 408.41 -55.71 416.45 -54.98" stroke-dasharray="8 9" transform="rotate(0, 400, 400)" opacity="0.05"></path><path d="M413.38 -43.82C421.16 -42.89 428.84 -41.63 436.4 -40.07 443.96 -38.42 451.41 -36.52 458.72 -34.42 466.03 -32.32 473.2 -30.08 480.24 -27.73 487.25 -25.46 494.12 -23.14 500.83 -20.79 507.51 -18.6 514.03 -16.4 520.37 -14.23 526.67 -12.25 532.8 -10.29 538.73 -8.36 547.47 -5.77 563.89 -0.87 571.56 1.52 578.97 3.83 592.74 8.93 599.15 11.85 605.39 15.02 617.19 22.68 622.86 27.25 628.59 32.31 640.15 44.16 646.13 50.94 650.36 55.71 654.69 60.77 659.16 66.08 663.92 71.54 668.85 77.24 674 83.16 679.47 89.2 685.18 95.43 691.14 101.83 697.45 108.31 704.01 114.94 710.83 121.69 717.97 128.48 725.33 135.37 732.91 142.34 740.72 149.31 748.67 156.35 756.73 163.43 764.89 170.49 773.05 177.58 781.15 184.69 789.18 191.76 797.02 198.85 804.58 205.95 811.89 212.99 818.78 220.04 825.17 227.1 831.12 234.1 836.45 241.11 841.09 248.14 845.13 255.1 848.38 262.08 850.82 269.09 852.58 276.04 853.5 283.02 853.56 290.04 852.98 297.01 851.6 304.03 849.46 311.1 846.82 318.13 843.55 325.22 839.73 332.37 835.68 339.49 831.26 346.69 826.6 353.96 822.03 361.22 817.44 368.55 812.95 375.98 808.89 383.39 805.14 390.89 801.81 398.49 799.19 406.08 797.14 413.77 795.74 421.56 795.2 429.34 795.35 437.14 796.17 444.93 797.82 452.72 800.04 460.52 802.78 468.31 806.15 476.09 809.85 483.86 813.78 491.61 818.05 499.35 822.33 507.06 826.5 514.73 830.69 522.38 834.56 529.97 838.02 537.48 841.19 544.96 843.76 552.35 845.68 559.62 847.08 566.84 847.72 573.93 847.57 580.86 846.79 587.7 845.18 594.37 842.76 600.83 839.71 607.18 835.88 613.3 831.33 619.17 826.23 624.9 820.5 630.35 814.2 635.5 807.5 640.5 800.36 645.18 792.85 649.53 785.12 653.71 777.16 657.56 769.03 661.07 760.85 664.43 752.63 667.46 744.42 670.17 736.31 672.78 728.3 675.1 720.43 677.16 712.77 679.18 705.31 681 698.05 682.66 691.08 684.39 684.34 686.04 677.83 687.65 671.63 689.47 665.64 691.35 659.87 693.35 654.38 695.7 649.08 698.26 643.94 701.1 639.05 704.4 634.27 708.06 629.59 712.12 625.11 716.72 620.67 721.75 616.25 727.25 611.98 733.29 607.68 739.78 603.34 746.69 599.09 754.06 594.76 761.78 590.32 769.77 585.94 778.04 581.42 786.45 576.77 794.88 572.12 803.33 567.32 811.61 562.35 819.61 557.37 827.3 552.21 834.49 546.86 841.05 541.5 847.02 535.95 852.17 530.22 856.41 524.46 859.84 518.51 862.24 512.39 863.57 506.24 864.02 499.91 863.4 493.41 861.74 486.89 859.3 480.21 855.95 473.36 851.77 466.5 847.12 459.49 841.9 452.34 836.24 445.17 830.54 437.87 824.73 430.44 818.97 423 813.64 415.44 808.67 407.75 804.21 400.07 800.6 392.37 797.75 384.65 795.72 376.94 794.7 369.22 794.55 361.51 795.21 353.8 796.83 346.09 799.15 338.4 802.08 330.72 805.7 323.06 809.69 315.42 813.9 307.8 818.42 300.21 822.89 292.65 827.16 285.12 831.33 277.63 835.03 270.19 838.16 262.78 840.83 255.43 842.72 248.14 843.78 240.89 844.16 233.71 843.6 226.61 842.11 219.56 839.85 212.6 836.67 205.74 832.6 198.92 827.83 192.22 822.27 185.63 816.01 179.1 809.21 172.7 801.86 166.43 794.05 160.22 785.93 154.15 777.52 148.23 768.91 142.37 760.24 136.66 751.52 131.1 742.83 125.61 734.28 120.27 725.88 115.08 717.68 109.95 709.77 104.97 702.13 100.15 694.79 95.36 687.82 90.72 681.16 86.23 674.82 81.76 668.88 77.42 663.23 73.21 657.86 69 652.85 64.91 648.08 60.94 643.51 55.01 637.18 43.61 625.42 38.13 619.8 32.66 614.37 22.14 603.3 17.09 597.5 12.09 591.58 2.62 578.79 -1.78 571.86 -6.06 564.66 -13.81 549.09 -17.24 540.72 -19.44 535.03 -21.46 529.12 -23.28 523.01 -25.08 516.87 -26.69 510.53 -28.1 504 -29.49 497.45 -30.7 490.73 -31.71 483.83 -32.72 476.92 -33.55 469.86 -34.21 462.65 -34.86 455.42 -35.35 448.06 -35.68 440.57 -36.02 433.07 -36.19 425.45 -36.2 417.71 -36.23 409.96 -36.09 402.2 -35.78 394.41 -35.49 386.63 -35.02 378.83 -34.38 371.03 -33.73 363.23 -32.9 355.41 -31.89 347.6 -30.86 339.78 -29.64 331.96 -28.22 324.15 -26.78 316.33 -25.15 308.51 -23.32 300.7 -21.47 292.9 -19.44 285.1 -17.21 277.31 -14.98 269.53 -12.57 261.76 -9.99 254.02 -7.42 246.3 -4.69 238.6 -1.82 230.95 1.02 223.32 4 215.74 7.11 208.23 10.18 200.75 13.36 193.35 16.65 186.05 19.9 178.8 23.25 171.66 26.7 164.65 30.1 157.71 33.6 150.93 37.21 144.3 40.78 137.77 44.45 131.43 48.24 125.28 52 119.25 55.88 113.44 59.88 107.85 63.89 102.4 68.03 97.18 72.3 92.21 76.6 87.38 81.04 82.79 85.64 78.46 90.27 74.26 95.07 70.3 100.02 66.58 105.02 62.96 110.19 59.56 115.52 56.38 120.92 53.25 126.47 50.3 132.19 47.53 137.96 44.75 143.9 42.1 149.97 39.57 156.12 36.97 162.4 34.45 168.82 31.99 175.29 29.4 181.89 26.83 188.61 24.28 195.37 21.55 202.24 18.81 209.22 16.04 216.23 13.09 223.33 10.1 230.51 7.08 237.73 3.88 245.02 0.66 252.37 -2.55 259.75 -5.92 267.19 -9.26 274.68 -12.56 282.18 -15.93 289.74 -19.21 297.33 -22.36 304.94 -25.5 312.59 -28.47 320.26 -31.21 327.94 -33.87 335.66 -36.26 343.39 -38.34 351.13 -40.27 358.89 -41.85 366.66 -43.06 374.43 -44.07 382.22 -44.69 390.01 -44.92 397.8 -44.94 405.59 -44.57 413.37 -43.82" stroke-dasharray="8 0" transform="rotate(2.1842105263157894, 400, 400)" opacity="0.07"></path><path d="M409.65 -32.66C417.16 -31.71 424.56 -30.44 431.84 -28.87 439.12 -27.2 446.28 -25.3 453.3 -23.19 460.31 -21.08 467.19 -18.82 473.92 -16.46 480.64 -14.17 487.2 -11.83 493.61 -9.45 499.99 -7.23 506.21 -5 512.26 -2.79 518.28 -0.77 524.12 1.22 529.78 3.18 538.14 5.81 553.88 10.76 561.27 13.16 568.45 15.42 581.95 20.29 588.31 23.04 594.59 25.98 606.68 33.02 612.61 37.22 618.67 41.87 631.08 52.8 637.58 59.08 642.15 63.52 646.86 68.24 651.71 73.22 656.83 78.34 662.14 83.72 667.66 89.32 673.47 95.05 679.5 100.98 685.76 107.1 692.32 113.32 699.11 119.7 706.11 126.22 713.37 132.8 720.81 139.49 728.4 146.29 736.16 153.12 744.01 160.02 751.9 166.99 759.84 173.96 767.72 180.97 775.47 188.03 783.11 195.06 790.51 202.12 797.59 209.19 804.38 216.24 810.74 223.29 816.58 230.36 821.97 237.39 826.74 244.42 830.83 251.47 834.35 258.47 837.12 265.49 839.1 272.52 840.46 279.51 841.03 286.53 840.8 293.56 839.99 300.56 838.45 307.59 836.2 314.66 833.53 321.7 830.29 328.78 826.56 335.91 822.63 343.01 818.39 350.17 813.94 357.39 809.6 364.59 805.26 371.86 801.02 379.19 797.19 386.51 793.66 393.91 790.53 401.37 788.06 408.83 786.13 416.37 784.79 423.98 784.26 431.58 784.37 439.17 785.1 446.74 786.61 454.31 788.65 461.86 791.18 469.37 794.3 476.88 797.75 484.35 801.42 491.77 805.43 499.18 809.47 506.53 813.44 513.81 817.45 521.07 821.19 528.24 824.57 535.31 827.71 542.34 830.33 549.26 832.35 556.04 833.93 562.76 834.81 569.33 834.96 575.71 834.54 582.02 833.35 588.13 831.39 594.03 828.85 599.82 825.56 605.37 821.57 610.66 817.05 615.83 811.9 620.73 806.18 625.34 800.05 629.82 793.45 634 786.46 637.88 779.21 641.63 771.68 645.08 763.94 648.23 756.1 651.27 748.15 654.04 740.16 656.55 732.21 659 724.3 661.23 716.47 663.27 708.8 665.33 701.27 667.25 693.9 669.08 686.76 671.04 679.81 672.97 673.06 674.94 666.58 677.15 660.29 679.48 654.2 681.98 648.38 684.83 642.73 687.94 637.24 691.34 632 695.19 626.88 699.4 621.87 704 617.06 709.1 612.32 714.61 607.64 720.53 603.1 726.93 598.57 733.72 594.03 740.85 589.6 748.37 585.12 756.15 580.58 764.12 576.1 772.29 571.53 780.5 566.85 788.67 562.2 796.78 557.43 804.65 552.52 812.19 547.62 819.38 542.56 826.03 537.35 832.03 532.13 837.44 526.75 842.03 521.2 845.74 515.64 848.66 509.9 850.61 504.01 851.55 498.09 851.66 492.01 850.78 485.76 848.93 479.5 846.38 473.08 842.99 466.51 838.86 459.92 834.3 453.19 829.22 446.31 823.77 439.43 818.29 432.4 812.72 425.25 807.2 418.09 802.1 410.81 797.34 403.4 793.06 396 789.56 388.57 786.77 381.13 784.75 373.68 783.68 366.23 783.4 358.78 783.89 351.33 785.29 343.89 787.36 336.46 789.99 329.04 793.31 321.63 796.99 314.25 800.92 306.89 805.17 299.56 809.42 292.27 813.52 285 817.57 277.78 821.23 270.6 824.4 263.46 827.18 256.38 829.28 249.37 830.63 242.39 831.37 235.49 831.26 228.68 830.27 221.91 828.58 215.23 826.02 208.65 822.6 202.13 818.51 195.71 813.65 189.41 808.07 183.17 801.95 177.05 795.24 171.07 788.03 165.14 780.48 159.35 772.57 153.7 764.39 148.11 756.08 142.67 747.65 137.37 739.16 132.13 730.74 127.04 722.39 122.1 714.16 117.2 706.14 112.44 698.32 107.83 690.74 103.26 683.46 98.82 676.45 94.51 669.72 90.22 663.33 86.05 657.22 82.01 651.37 77.96 645.87 74.03 640.59 70.2 635.54 64.47 628.48 53.45 615.44 48.14 609.28 42.84 603.41 32.63 591.72 27.72 585.76 22.85 579.78 13.63 567.11 9.31 560.37 5.11 553.42 -2.52 538.51 -5.92 530.54 -8.12 525.13 -10.13 519.52 -11.97 513.71 -13.79 507.88 -15.42 501.86 -16.86 495.65 -18.29 489.42 -19.53 483.01 -20.59 476.43 -21.63 469.84 -22.5 463.08 -23.19 456.17 -23.88 449.25 -24.39 442.17 -24.73 434.96 -25.08 427.74 -25.25 420.39 -25.26 412.9 -25.26 405.42 -25.1 397.89 -24.76 390.34 -24.43 382.79 -23.91 375.21 -23.22 367.61 -22.53 360.01 -21.65 352.4 -20.59 344.77 -19.52 337.15 -18.26 329.52 -16.81 321.89 -15.34 314.26 -13.69 306.63 -11.86 299.01 -10.01 291.39 -7.98 283.79 -5.78 276.2 -3.57 268.63 -1.2 261.08 1.32 253.56 3.83 246.07 6.49 238.62 9.29 231.21 12.06 223.85 14.96 216.55 17.97 209.32 20.95 202.15 24.03 195.06 27.22 188.08 30.36 181.18 33.6 174.39 36.93 167.74 40.22 161.18 43.6 154.77 47.08 148.53 50.52 142.41 54.07 136.46 57.71 130.72 61.34 125.1 65.07 119.69 68.92 114.5 72.77 109.45 76.74 104.62 80.84 100.03 84.96 95.57 89.21 91.34 93.61 87.35 98.04 83.46 102.62 79.8 107.36 76.36 112.14 72.99 117.07 69.82 122.16 66.84 127.31 63.89 132.62 61.1 138.07 58.45 143.59 55.77 149.26 53.2 155.08 50.73 160.95 48.17 166.97 45.66 173.12 43.19 179.33 40.59 185.66 37.99 192.11 35.39 198.61 32.62 205.22 29.82 211.94 26.99 218.69 23.98 225.54 20.93 232.48 17.85 239.45 14.6 246.49 11.33 253.6 8.07 260.75 4.67 267.95 1.31 275.21 -1.99 282.49 -5.36 289.81 -8.63 297.18 -11.76 304.56 -14.88 311.98 -17.81 319.43 -20.52 326.89 -23.13 334.38 -25.48 341.88 -27.51 349.39 -29.39 356.91 -30.92 364.44 -32.09 371.98 -33.06 379.52 -33.64 387.06 -33.84 394.6 -33.83 402.13 -33.43 409.64 -32.66" stroke-dasharray="10 21" transform="rotate(4.368421052631579, 400, 400)" opacity="0.10"></path><path d="M405.45 -21.5C412.69 -20.54 419.81 -19.25 426.81 -17.68 433.81 -16.01 440.68 -14.1 447.43 -11.99 454.16 -9.87 460.75 -7.6 467.2 -5.22 473.64 -2.92 479.93 -0.56 486.06 1.83 492.18 4.09 498.14 6.35 503.93 8.59 512.51 11.67 528.8 17.38 536.52 20.03 544.04 22.41 558.29 27.04 565.05 29.4 571.7 31.75 584.5 37.09 590.73 40.19 597.03 43.58 609.71 51.69 616.2 56.47 620.72 59.88 625.31 63.56 630.01 67.51 634.92 71.62 639.97 75.99 645.17 80.62 650.63 85.4 656.26 90.43 662.08 95.69 668.18 101.09 674.47 106.7 680.96 112.5 687.7 118.42 694.63 124.51 701.73 130.76 709.04 137.08 716.47 143.54 724 150.11 731.65 156.74 739.32 163.46 746.98 170.26 754.63 177.08 762.17 183.97 769.53 190.9 776.75 197.84 783.67 204.82 790.25 211.82 796.53 218.81 802.34 225.83 807.63 232.86 812.48 239.86 816.71 246.88 820.28 253.91 823.3 260.91 825.61 267.93 827.18 274.95 828.17 281.95 828.42 288.96 827.93 295.98 826.93 302.98 825.25 310.01 822.93 317.05 820.25 324.08 817.05 331.13 813.41 338.21 809.62 345.28 805.56 352.39 801.33 359.53 797.21 366.67 793.11 373.85 789.12 381.07 785.52 388.29 782.21 395.56 779.26 402.87 776.94 410.19 775.12 417.55 773.84 424.96 773.32 432.38 773.4 439.75 774.04 447.08 775.41 454.4 777.29 461.68 779.61 468.9 782.5 476.12 785.7 483.27 789.12 490.35 792.88 497.41 796.68 504.39 800.44 511.28 804.26 518.14 807.86 524.89 811.14 531.52 814.24 538.11 816.87 544.56 818.97 550.86 821.23 560.13 821.67 577.64 819.74 585.81 817.67 591.09 814.89 596.14 811.44 600.93 807.47 605.62 802.89 610.05 797.74 614.2 792.18 618.26 786.14 622.04 779.68 625.56 772.94 628.98 765.88 632.14 758.57 635.05 751.12 637.9 743.51 640.53 735.8 642.95 728.08 645.37 720.35 647.62 712.64 649.74 705.04 651.94 697.52 654.06 690.11 656.15 682.89 658.41 675.81 660.7 668.9 663.08 662.2 665.73 655.69 668.53 649.34 671.53 643.23 674.91 637.29 678.54 631.5 682.48 625.93 686.86 620.5 691.57 615.19 696.65 610.07 702.19 605.03 708.09 600.07 714.36 595.26 721.04 590.49 728.03 585.73 735.31 581.09 742.88 576.43 750.64 571.74 758.52 567.13 766.51 562.46 774.47 557.71 782.32 553.01 790.04 548.22 797.47 543.31 804.52 538.43 811.19 533.43 817.29 528.3 822.74 523.17 827.59 517.9 831.65 512.49 834.85 504.29 838.06 487.13 838.65 478.17 836.08 472.13 833.44 465.94 830.03 459.61 825.94 453.27 821.49 446.79 816.57 440.18 811.31 433.55 806.05 426.79 800.72 419.91 795.44 413.02 790.57 406.01 786.01 398.89 781.9 391.76 778.52 384.61 775.8 377.44 773.79 370.27 772.66 363.09 772.28 355.91 772.61 348.74 773.8 341.57 775.61 334.41 777.97 327.27 780.99 320.14 784.38 313.04 788.01 305.96 792 298.9 796.01 291.89 799.92 284.9 803.83 277.96 807.43 271.08 810.6 264.22 813.46 257.43 815.71 250.71 817.3 244.02 818.36 237.42 818.63 230.9 818.11 224.42 816.94 218.04 814.95 211.77 812.15 205.54 808.72 199.42 804.52 193.42 799.62 187.47 794.18 181.64 788.13 175.94 781.56 170.3 774.6 164.79 767.24 159.42 759.56 154.1 751.69 148.92 743.62 143.89 735.44 138.9 727.24 134.05 719.04 129.34 710.88 124.67 702.86 120.13 694.98 115.73 687.26 111.35 679.78 107.1 672.51 102.98 665.48 98.87 658.74 94.87 652.25 90.98 645.99 87.09 640.05 83.29 634.32 79.6 628.81 75.88 623.59 72.26 618.54 68.72 613.65 63.4 606.72 53.1 593.6 48.13 587.27 43.17 581.12 33.64 568.7 29.11 562.33 24.63 555.91 16.27 542.38 12.42 535.23 8.72 527.89 2.13 512.31 -0.72 504.05 -2.55 498.47 -4.2 492.7 -5.67 486.76 -7.13 480.81 -8.4 474.68 -9.5 468.38 -10.57 462.07 -11.47 455.59 -12.19 448.96 -12.9 442.32 -13.43 435.53 -13.79 428.59 -14.14 421.64 -14.31 414.56 -14.31 407.33 -14.3 400.11 -14.11 392.84 -13.75 385.53 -13.37 378.22 -12.82 370.88 -12.09 363.51 -11.35 356.15 -10.43 348.76 -9.33 341.36 -8.22 333.97 -6.92 326.56 -5.44 319.15 -3.95 311.76 -2.28 304.36 -0.44 296.96 1.4 289.59 3.43 282.23 5.61 274.89 7.79 267.57 10.13 260.28 12.61 253.04 15.08 245.83 17.69 238.66 20.42 231.56 23.12 224.51 25.94 217.53 28.87 210.64 31.76 203.81 34.76 197.08 37.85 190.47 40.89 183.93 44.03 177.53 47.26 171.27 50.44 165.11 53.71 159.1 57.07 153.28 60.39 147.56 63.81 142.02 67.33 136.69 70.81 131.48 74.41 126.47 78.11 121.68 83.71 114.79 95.52 102.26 101.76 96.63 108.18 91.34 121.79 81.81 128.99 77.52 133.89 74.71 138.94 72.04 144.14 69.48 149.4 66.88 154.8 64.36 160.35 61.91 165.95 59.36 171.69 56.85 177.56 54.36 183.49 51.72 189.54 49.07 195.71 46.42 201.94 43.58 208.27 40.72 214.71 37.83 221.19 34.75 227.77 31.64 234.43 28.51 241.13 25.21 247.91 21.9 254.76 18.6 261.65 15.18 268.59 11.81 275.59 8.5 282.62 5.13 289.69 1.88 296.81 -1.22 303.94 -4.3 311.12 -7.19 318.31 -9.86 325.53 -12.42 332.76 -14.71 340.01 -16.7 347.28 -18.52 354.55 -20 361.83 -21.13 369.11 -22.05 376.39 -22.59 383.66 -22.76 390.94 -22.71 398.2 -22.29 405.44 -21.5" stroke-dasharray="13 13" transform="rotate(6.552631578947368, 400, 400)" opacity="0.13"></path><path d="M400.98 -10.34C407.94 -9.37 414.79 -8.07 421.52 -6.5 428.25 -4.82 434.86 -2.91 441.33 -0.8 447.8 1.31 454.13 3.58 460.33 5.97 466.51 8.28 472.55 10.66 478.45 13.08 484.33 15.37 490.06 17.66 495.65 19.94 503.93 23.08 519.72 28.91 527.24 31.62 534.61 34.04 548.71 38.69 555.47 41.02 562.18 43.29 575.29 48.34 581.76 51.22 588.35 54.35 601.76 61.78 608.68 66.15 613.49 69.26 618.39 72.64 623.4 76.26 628.62 80.03 633.98 84.06 639.49 88.35 645.22 92.77 651.13 97.45 657.2 102.35 663.51 107.39 669.99 112.66 676.63 118.12 683.48 123.7 690.48 129.47 697.6 135.41 704.87 141.44 712.22 147.61 719.62 153.92 727.08 160.29 734.52 166.78 741.88 173.36 749.2 179.98 756.35 186.68 763.29 193.45 770.05 200.23 776.49 207.07 782.55 213.95 788.3 220.83 793.57 227.75 798.32 234.69 802.63 241.62 806.35 248.57 809.42 255.54 811.98 262.49 813.86 269.46 815.05 276.44 815.7 283.39 815.67 290.37 814.96 297.35 813.79 304.31 812 311.29 809.64 318.28 806.96 325.26 803.82 332.26 800.29 339.27 796.65 346.28 792.78 353.31 788.76 360.36 784.87 367.4 781 374.47 777.24 381.57 773.87 388.66 770.77 395.79 768 402.94 765.83 410.09 764.11 417.26 762.9 424.46 762.39 431.67 762.42 438.81 762.99 445.88 764.23 452.95 765.94 459.95 768.07 466.87 770.74 473.78 773.7 480.61 776.87 487.34 780.38 494.05 783.95 500.67 787.49 507.16 791.13 513.63 794.57 519.98 797.74 526.18 800.77 532.34 803.4 538.35 805.55 544.19 807.99 552.78 809.2 568.91 807.83 576.39 805.04 583.54 795.49 596.53 788.89 602.36 783.89 606.1 778.41 609.59 772.49 612.85 766.27 616.05 759.71 619.04 752.86 621.82 745.84 624.59 738.62 627.19 731.25 629.63 723.83 632.11 716.34 634.49 708.82 636.79 701.36 639.21 693.93 641.61 686.57 644.02 679.34 646.64 672.22 649.34 665.22 652.16 658.4 655.27 651.72 658.56 645.19 662.07 638.86 665.94 632.68 670.08 626.65 674.52 620.81 679.36 615.1 684.53 609.52 690.02 604.11 695.92 598.8 702.14 593.57 708.66 588.5 715.54 583.48 722.66 578.5 729.99 573.63 737.54 568.78 745.2 563.92 752.91 559.15 760.65 554.35 768.31 549.5 775.78 544.71 783.08 539.85 790.04 534.91 796.58 530.01 802.72 525.01 808.28 519.91 813.18 512.23 819.26 496.28 826.3 487.98 827.11 482.41 826.64 476.7 825.32 470.86 823.18 465.01 820.47 459.03 817.06 452.92 813.03 446.8 808.69 440.55 803.93 434.17 798.87 427.79 793.84 421.28 788.74 414.65 783.7 408.02 779.05 401.28 774.69 394.42 770.74 387.57 767.48 380.69 764.83 373.8 762.83 366.91 761.66 360.01 761.17 353.11 761.36 346.22 762.34 339.33 763.92 332.46 766.02 325.6 768.75 318.75 771.84 311.94 775.19 305.15 778.9 298.39 782.66 291.67 786.37 284.97 790.13 278.33 793.63 271.74 796.77 265.19 799.67 258.7 802.04 252.28 803.82 245.9 805.14 239.59 805.76 233.38 805.64 227.21 804.95 221.13 803.49 215.16 801.27 209.23 798.45 203.41 794.9 197.71 790.66 192.06 785.88 186.52 780.5 181.12 774.57 175.76 768.24 170.53 761.48 165.43 754.34 160.37 746.97 155.45 739.34 150.67 731.54 145.92 723.65 141.31 715.69 136.83 707.71 132.37 699.8 128.05 691.95 123.85 684.21 119.66 676.64 115.6 669.23 111.65 661.99 107.7 655 103.86 648.21 100.12 641.63 96.37 635.32 92.71 629.21 89.14 623.3 85.55 617.66 82.03 612.19 78.61 606.89 73.44 599.34 63.43 585.09 58.59 578.27 53.75 571.69 44.44 558.64 40 552.06 35.61 545.49 27.38 531.9 23.58 524.81 19.91 517.59 13.34 502.4 10.47 494.4 8.63 489.01 6.95 483.45 5.46 477.73 3.98 472 2.68 466.1 1.55 460.05 0.45 453.98 -0.46 447.76 -1.21 441.38 -1.93 435 -2.48 428.47 -2.85 421.79 -3.2 415.11 -3.37 408.28 -3.36 401.32 -3.34 394.36 -3.13 387.35 -2.74 380.3 -2.33 373.25 -1.75 366.17 -0.98 359.05 -0.2 351.94 0.74 344.81 1.88 337.67 3.03 330.53 4.36 323.38 5.86 316.23 7.38 309.1 9.07 301.96 10.92 294.84 12.77 287.75 14.79 280.67 16.96 273.62 19.13 266.6 21.44 259.62 23.88 252.69 26.31 245.8 28.87 238.97 31.54 232.21 34.19 225.51 36.94 218.89 39.8 212.37 42.62 205.91 45.53 199.57 48.54 193.35 51.49 187.21 54.54 181.21 57.67 175.36 60.75 169.61 63.91 164.02 67.17 158.61 70.38 153.3 73.68 148.18 77.07 143.25 82.16 136.12 92.82 123.05 98.42 117.11 104.14 111.51 116.22 101.38 122.61 96.81 129.18 92.44 143.09 84.37 150.44 80.59 155.43 78.03 160.57 75.54 165.84 73.09 171.16 70.53 176.62 67.98 182.21 65.45 187.85 62.76 193.62 60.06 199.5 57.34 205.43 54.44 211.48 51.51 217.62 48.54 223.82 45.4 230.11 42.23 236.48 39.05 242.9 35.7 249.4 32.36 255.97 29.04 262.57 25.6 269.24 22.22 275.96 18.92 282.72 15.57 289.52 12.34 296.36 9.27 303.23 6.22 310.13 3.38 317.07 0.77 324.01 -1.73 330.98 -3.96 337.97 -5.89 344.97 -7.66 351.97 -9.09 358.98 -10.16 366 -11.03 373.01 -11.54 380.01 -11.67 387.02 -11.59 394.01 -11.15 400.97 -10.34" stroke-dasharray="14 14" transform="rotate(8.736842105263158, 400, 400)" opacity="0.15"></path><path d="M396.46 0.81C403.16 1.79 409.74 3.09 416.21 4.67 422.68 6.34 429.02 8.25 435.25 10.35 441.47 12.47 447.57 14.74 453.53 17.13 459.49 19.45 465.31 21.85 471 24.28 476.69 26.59 482.23 28.91 487.65 31.22 495.69 34.42 511.11 40.39 518.51 43.16 525.8 45.64 539.89 50.35 546.72 52.66 553.55 54.88 567.05 59.71 573.8 62.42 580.7 65.31 594.85 72.12 602.18 76.11 607.26 78.95 612.44 82.03 617.73 85.35 623.21 88.79 628.83 92.49 634.59 96.42 640.55 100.5 646.65 104.81 652.91 109.35 659.36 114.03 665.95 118.93 672.67 124.04 679.55 129.26 686.54 134.68 693.6 140.28 700.77 145.97 707.97 151.83 715.16 157.83 722.38 163.91 729.52 170.11 736.55 176.43 743.48 182.8 750.22 189.26 756.71 195.8 762.98 202.38 768.92 209.03 774.46 215.73 779.68 222.45 784.42 229.21 788.65 236.01 792.45 242.81 795.67 249.64 798.28 256.5 800.4 263.35 801.89 270.21 802.73 277.1 803.08 283.97 802.8 290.86 801.9 297.75 800.59 304.64 798.72 311.53 796.34 318.44 793.68 325.33 790.62 332.24 787.21 339.15 783.73 346.06 780.04 352.98 776.23 359.91 772.57 366.84 768.93 373.77 765.4 380.72 762.25 387.67 759.34 394.63 756.76 401.59 754.72 408.56 753.1 415.53 751.95 422.51 751.45 429.48 751.46 436.38 751.95 443.19 753.07 449.99 754.62 456.7 756.56 463.32 759.01 469.93 761.74 476.43 764.68 482.82 767.95 489.2 771.28 495.45 774.61 501.57 778.04 507.67 781.32 513.62 784.37 519.43 788.62 527.99 794.67 544.21 796.19 551.81 796.54 559.13 793.49 572.64 790.08 578.81 785.41 584.68 772.69 595.28 764.85 600.05 759.17 603.14 753.13 606.06 746.77 608.82 740.21 611.61 733.41 614.27 726.43 616.83 719.36 619.47 712.17 622.06 704.92 624.61 697.67 627.32 690.41 630.05 683.17 632.84 676.02 635.85 668.92 638.98 661.92 642.25 655.05 645.82 648.29 649.59 641.64 653.58 635.17 657.92 628.82 662.52 622.59 667.41 616.54 672.66 610.61 678.2 604.8 684.04 599.15 690.22 593.6 696.67 588.13 703.37 582.81 710.34 577.56 717.5 572.36 724.8 567.28 732.26 562.23 739.75 557.19 747.22 552.25 754.66 547.3 761.96 542.32 769.02 537.42 775.87 532.47 782.34 527.47 788.36 522.51 793.96 517.49 798.97 512.38 803.34 504.72 808.64 488.94 814.38 480.8 814.7 475.34 813.99 469.77 812.49 464.08 810.24 458.39 807.48 452.58 804.08 446.65 800.13 440.72 795.91 434.68 791.32 428.52 786.46 422.36 781.64 416.08 776.77 409.7 771.97 403.31 767.53 396.82 763.37 390.23 759.58 383.64 756.44 377.03 753.86 370.41 751.87 363.79 750.67 357.17 750.09 350.55 750.13 343.95 750.93 337.34 752.28 330.76 754.13 324.19 756.58 317.64 759.38 311.12 762.45 304.62 765.88 298.16 769.4 291.74 772.89 285.35 776.47 279.01 779.85 272.73 782.93 266.48 785.83 260.3 788.28 254.19 790.21 248.11 791.74 242.12 792.65 236.22 792.9 230.35 792.62 224.58 791.64 218.91 789.96 213.29 787.71 207.77 784.77 202.36 781.17 197 777.05 191.75 772.32 186.63 767.05 181.55 761.36 176.59 755.21 171.75 748.65 166.96 741.83 162.29 734.7 157.74 727.34 153.23 719.85 148.84 712.22 144.58 704.51 140.33 696.8 136.2 689.1 132.19 681.43 128.19 673.88 124.29 666.42 120.51 659.1 116.71 651.95 113.01 644.97 109.41 638.16 105.79 631.56 102.25 625.15 98.81 618.92 95.32 612.92 91.91 607.09 88.59 601.42 85.21 595.96 81.91 590.64 78.68 585.44 73.8 577.96 64.34 563.59 59.78 556.6 55.23 549.79 46.55 536.13 42.45 529.22 38.44 522.29 31.03 507.97 27.68 500.53 24.48 492.98 18.91 477.19 16.55 468.93 15.05 463.38 13.73 457.67 12.58 451.82 11.46 445.97 10.52 439.96 9.75 433.82 9.01 427.66 8.45 421.37 8.08 414.94 7.73 408.51 7.56 401.94 7.58 395.24 7.62 388.54 7.84 381.79 8.25 375 8.69 368.22 9.3 361.4 10.09 354.56 10.91 347.72 11.9 340.87 13.07 334 14.25 327.14 15.61 320.28 17.13 313.42 18.67 306.58 20.37 299.74 22.22 292.93 24.09 286.14 26.1 279.38 28.26 272.66 30.41 265.98 32.7 259.33 35.11 252.75 37.51 246.22 40.02 239.75 42.65 233.37 45.24 227.04 47.94 220.8 50.73 214.67 53.48 208.61 56.33 202.67 59.26 196.86 62.13 191.13 65.1 185.54 68.14 180.11 71.13 174.77 74.21 169.59 77.36 164.59 82.06 157.32 91.84 143.86 96.94 137.68 102.1 131.82 112.94 121.16 118.64 116.32 124.47 111.72 136.81 103.25 143.32 99.33 150.02 95.45 164.16 87.93 171.6 84.21 176.64 81.62 181.82 79.03 187.13 76.44 192.48 73.69 197.95 70.92 203.54 68.12 209.18 65.16 214.93 62.15 220.78 59.12 226.67 55.92 232.66 52.7 238.74 49.46 244.86 46.08 251.06 42.71 257.34 39.36 263.65 35.93 270.03 32.55 276.46 29.26 282.92 25.94 289.44 22.75 296 19.71 302.58 16.72 309.2 13.93 315.85 11.37 322.52 8.93 329.21 6.76 335.92 4.89 342.64 3.19 349.37 1.82 356.11 0.8 362.85 -0.02 369.59 -0.48 376.32 -0.57 383.05 -0.47 389.76 0 396.45 0.81" stroke-dasharray="7 11" transform="rotate(10.921052631578947, 400, 400)" opacity="0.17"></path><path d="M392.12 11.97C398.55 12.96 404.88 14.26 411.1 15.83 417.32 17.5 423.43 19.4 429.42 21.49 435.42 23.61 441.3 25.88 447.06 28.26 452.81 30.59 458.45 32.99 463.97 35.44 472.18 38.94 488.02 45.71 495.66 48.92 503.2 51.82 517.8 57.21 524.9 59.72 531.98 62 545.92 66.53 552.84 68.86 559.87 71.19 574.12 76.44 581.41 79.46 586.42 81.56 591.5 83.86 596.66 86.36 601.97 88.95 607.39 91.75 612.92 94.78 618.62 97.92 624.44 101.29 630.38 104.89 636.5 108.62 642.74 112.57 649.1 116.75 655.63 121.06 662.25 125.59 668.97 130.33 675.81 135.18 682.71 140.23 689.65 145.46 696.65 150.8 703.63 156.31 710.56 161.97 717.48 167.72 724.27 173.6 730.92 179.61 737.44 185.68 743.73 191.86 749.74 198.13 755.52 204.45 760.95 210.85 765.98 217.32 770.67 223.82 774.9 230.38 778.62 236.98 781.93 243.6 784.68 250.26 786.86 256.94 788.58 263.64 789.71 270.36 790.23 277.09 790.32 283.83 789.83 290.58 788.76 297.35 787.34 304.11 785.42 310.88 783.04 317.65 780.42 324.43 777.45 331.2 774.17 337.98 770.85 344.76 767.35 351.54 763.75 358.32 760.31 365.09 756.9 371.87 753.6 378.64 750.65 385.42 747.94 392.19 745.52 398.95 743.62 405.71 742.1 412.47 741 419.21 740.52 425.95 740.49 432.59 740.91 439.13 741.92 445.66 743.32 452.09 745.09 458.41 747.33 464.71 749.84 470.9 752.55 476.97 755.58 483.01 758.68 488.93 761.79 494.7 765.02 500.45 768.13 506.05 771.05 511.49 775.17 519.52 781.29 534.67 783.02 541.76 783.7 548.6 781.65 561.24 778.89 567.04 774.93 572.6 763.79 582.79 756.75 587.46 751.61 590.54 746.09 593.48 740.24 596.32 734.16 599.21 727.83 602.02 721.27 604.78 714.6 607.64 707.77 610.5 700.83 613.36 693.86 616.4 686.83 619.5 679.78 622.69 672.78 626.11 665.79 629.67 658.86 633.39 652.02 637.41 645.25 641.62 638.57 646.06 632.02 650.82 625.57 655.83 619.22 661.09 613.02 666.68 606.93 672.53 600.94 678.62 595.1 685 589.35 691.6 583.69 698.38 578.16 705.38 572.7 712.49 567.31 719.69 562.03 726.97 556.79 734.22 551.58 741.4 546.46 748.49 541.36 755.39 536.26 762 531.22 768.37 526.17 774.33 521.09 779.82 516.06 784.89 510.98 789.37 505.85 793.21 498.17 797.78 482.48 802.3 474.44 802.17 469.06 801.25 463.59 799.6 458.02 797.26 452.46 794.47 446.79 791.11 441.03 787.24 435.27 783.15 429.41 778.73 423.45 774.07 417.48 769.47 411.42 764.83 405.26 760.25 399.11 756.02 392.85 752.05 386.51 748.42 380.17 745.4 373.82 742.88 367.47 740.92 361.12 739.68 354.77 739.02 348.44 738.94 342.11 739.56 335.79 740.69 329.49 742.3 323.21 744.48 316.96 747 310.74 749.79 304.53 752.95 298.37 756.21 292.26 759.48 286.17 762.87 280.13 766.11 274.16 769.1 268.22 771.97 262.34 774.46 256.54 776.48 247.93 778.77 231.2 779.72 223.09 778.24 217.76 776.53 212.54 774.16 207.42 771.16 202.34 767.67 197.38 763.58 192.53 758.95 187.71 753.9 183.01 748.38 178.43 742.44 173.88 736.19 169.44 729.61 165.13 722.75 160.84 715.72 156.66 708.5 152.59 701.14 148.54 693.73 144.6 686.26 140.76 678.77 136.92 671.34 133.19 663.95 129.55 656.63 125.89 649.44 122.33 642.36 118.86 635.42 115.35 628.65 111.92 622.02 108.58 615.55 105.19 609.27 101.88 603.14 98.64 597.17 95.35 591.38 92.13 585.73 88.98 580.2 85.78 574.84 82.64 569.59 79.58 564.42 74.94 556.91 65.99 542.31 61.7 535.12 57.45 528.05 49.44 513.82 45.71 506.59 42.1 499.33 35.57 484.38 32.68 476.65 29.97 468.82 25.41 452.53 23.58 444.07 22.44 438.39 21.49 432.57 20.71 426.63 19.96 420.68 19.39 414.61 19.01 408.41 18.66 402.21 18.5 395.88 18.52 389.43 18.58 382.99 18.82 376.5 19.25 369.98 19.71 363.47 20.35 356.93 21.16 350.37 22.01 343.81 23.03 337.24 24.22 330.67 25.43 324.11 26.81 317.56 28.35 311.01 29.9 304.48 31.62 297.98 33.48 291.5 35.35 285.04 37.36 278.62 39.5 272.26 41.64 265.92 43.91 259.64 46.3 253.44 48.67 247.27 51.15 241.19 53.73 235.2 56.28 229.26 58.93 223.42 61.67 217.7 64.36 212.04 67.15 206.51 70.01 201.12 74.26 193.21 83.08 178.27 87.64 171.27 92.2 164.57 101.66 152.18 106.58 146.49 111.54 141.08 121.94 131.17 127.39 126.65 132.96 122.3 144.7 114.2 150.89 110.39 157.24 106.56 170.63 99.03 177.67 95.26 184.9 91.29 200.03 83.07 207.92 78.77 213.26 75.73 218.71 72.66 224.26 69.55 229.85 66.3 235.54 63.02 241.32 59.74 247.13 56.34 253.03 52.95 259 49.59 265.01 46.16 271.08 42.8 277.22 39.53 283.38 36.25 289.6 33.1 295.87 30.11 302.15 27.18 308.48 24.45 314.84 21.96 321.22 19.59 327.63 17.49 334.05 15.68 340.49 14.05 346.94 12.74 353.39 11.77 359.86 10.99 366.32 10.57 372.78 10.51 379.24 10.65 385.68 11.13 392.11 11.96" stroke-dasharray="8 1" transform="rotate(13.105263157894736, 400, 400)" opacity="0.20"></path><path d="M388.16 23.12C394.33 24.13 400.42 25.42 406.4 26.98 412.39 28.65 418.28 30.53 424.07 32.62 429.86 34.72 435.54 36.98 441.13 39.35 446.71 41.68 452.19 44.09 457.56 46.54 465.58 50.07 481.12 56.94 488.66 60.21 496.14 63.19 510.75 68.72 517.92 71.3 525.09 73.64 539.36 78.19 546.5 80.49 553.77 82.76 568.59 87.74 576.19 90.55 581.4 92.49 586.69 94.6 592.06 96.89 597.57 99.25 603.17 101.8 608.88 104.56 614.73 107.41 620.69 110.48 626.75 113.76 632.96 117.15 639.27 120.76 645.67 124.59 652.19 128.54 658.78 132.69 665.43 137.06 672.15 141.53 678.9 146.2 685.64 151.06 692.4 156.02 699.11 161.16 705.73 166.45 712.3 171.84 718.71 177.37 724.94 183.04 731.02 188.78 736.84 194.63 742.36 200.59 747.65 206.61 752.57 212.72 757.08 218.91 761.27 225.14 765 231.44 768.23 237.8 771.08 244.18 773.4 250.61 775.17 257.08 776.53 263.57 777.33 270.09 777.58 276.63 777.43 283.18 776.76 289.75 775.57 296.34 774.06 302.93 772.11 309.53 769.74 316.13 767.19 322.74 764.31 329.34 761.18 335.95 758.02 342.56 754.71 349.16 751.32 355.76 748.09 362.36 744.91 368.95 741.82 375.52 739.08 382.1 736.55 388.66 734.29 395.21 732.52 401.75 731.09 408.27 730.06 414.76 729.59 421.26 729.53 427.64 729.88 433.91 730.78 440.18 732.05 446.32 733.64 452.35 735.69 458.37 737.98 464.26 740.47 470.02 743.26 475.76 746.14 481.36 749.04 486.82 753.54 494.9 761.75 510.24 765.12 517.48 767.86 524.5 770.71 537.64 770.67 543.75 769.55 549.66 764.08 560.61 759.77 565.69 754.43 570.65 741.07 580.04 733.24 584.55 727.67 587.61 721.81 590.64 715.71 593.65 709.47 596.79 703.04 599.96 696.46 603.17 689.82 606.56 683.09 610.04 676.3 613.64 669.51 617.46 662.71 621.44 655.91 625.59 649.17 630.01 642.47 634.63 635.83 639.46 629.28 644.58 622.8 649.92 616.41 655.49 610.13 661.34 603.94 667.41 597.84 673.67 591.86 680.17 585.97 686.82 580.15 693.61 574.46 700.55 568.84 707.54 563.28 714.56 557.83 721.59 552.43 728.56 547.07 735.38 541.8 742.09 536.55 748.54 531.32 754.69 526.16 760.56 521 766.01 515.83 770.97 510.72 775.51 505.58 779.47 500.4 782.81 492.68 786.68 477.01 790.07 469.04 789.54 463.72 788.43 458.33 786.65 452.86 784.25 447.4 781.45 441.86 778.13 436.24 774.37 430.62 770.41 424.91 766.16 419.13 761.7 413.35 757.31 407.48 752.9 401.53 748.54 395.58 744.52 389.56 740.73 383.46 737.26 377.35 734.35 371.25 731.91 365.16 729.98 359.06 728.71 352.98 727.97 346.92 727.77 340.86 728.22 334.82 729.16 328.81 730.53 322.81 732.45 316.84 734.71 310.92 737.22 305.01 740.11 299.14 743.11 293.33 746.15 287.54 749.34 281.8 752.42 276.14 755.3 267.7 759.35 251.26 765.18 243.27 766.66 235.42 766.99 220.24 763.99 212.93 760.63 208.12 757.74 203.41 754.27 198.82 750.27 194.26 745.86 189.8 740.96 185.46 735.64 181.14 730 176.93 723.99 172.83 717.68 168.74 711.16 164.75 704.4 160.88 697.46 157 690.43 153.22 683.28 149.55 676.06 145.86 668.85 142.27 661.62 138.76 654.41 135.23 647.28 131.79 640.22 128.43 633.24 125.02 626.39 121.7 619.65 118.45 613.03 115.15 606.56 111.92 600.22 108.76 594.01 105.54 587.97 102.39 582.05 99.31 576.25 96.16 570.6 93.09 565.06 90.08 559.61 87.02 554.3 84.03 549.06 81.12 543.88 76.72 536.29 68.3 521.39 64.3 514 60.37 506.69 53.09 491.93 49.76 484.43 46.58 476.9 40.98 461.44 38.59 453.47 36.4 445.42 32.92 428.78 31.65 420.18 30.9 414.41 30.33 408.53 29.94 402.55 29.6 396.56 29.44 390.46 29.47 384.26 29.54 378.06 29.8 371.83 30.24 365.58 30.72 359.33 31.38 353.06 32.21 346.79 33.08 340.53 34.12 334.26 35.33 327.99 36.57 321.74 37.96 315.5 39.52 309.28 41.09 303.09 42.81 296.91 44.68 290.78 46.55 284.68 48.55 278.62 50.69 272.62 52.82 266.65 55.07 260.75 57.44 254.92 59.78 249.14 62.23 243.45 64.78 237.86 67.29 232.31 69.9 226.88 72.59 221.56 76.6 213.74 84.93 198.87 89.24 191.85 93.54 185.09 102.42 172.48 107 166.64 111.59 161.05 121.13 150.77 126.1 146.05 131.12 141.5 141.66 133.07 147.2 129.13 152.85 125.22 164.75 117.65 171.01 113.91 177.44 110.04 190.93 102.12 197.99 98.02 202.78 95.12 207.68 92.2 212.69 89.25 217.73 86.14 222.89 83 228.14 79.83 233.43 76.53 238.82 73.21 244.29 69.9 249.8 66.47 255.39 63.08 261.06 59.72 266.76 56.3 272.53 52.97 278.37 49.73 284.22 46.49 290.14 43.4 296.11 40.47 302.1 37.61 308.13 34.95 314.2 32.53 320.28 30.23 326.4 28.2 332.54 26.47 338.69 24.9 344.86 23.65 351.03 22.74 357.22 22.02 363.41 21.64 369.6 21.61 375.79 21.78 381.98 22.28 388.15 23.12" stroke-dasharray="16 2" transform="rotate(15.289473684210526, 400, 400)" opacity="0.22"></path><path d="M384.78 34.28C390.71 35.29 396.56 36.58 402.33 38.13 408.1 39.78 413.79 41.65 419.39 43.72 424.99 45.81 430.5 48.05 435.93 50.41 444.03 53.94 459.82 61.15 467.51 64.73 472.62 66.98 477.66 69.22 482.63 71.43 492.63 75.35 502.41 79.15 512.01 82.83 521.8 85.89 531.53 88.98 541.26 92.16 551.32 95.01 561.52 98.2 571.93 101.81 582.8 105.44 593.98 109.71 605.49 114.69 617.5 119.94 629.85 126.02 642.47 132.89 655.44 140.19 668.5 148.3 681.48 157.15 694.39 166.41 706.84 176.34 718.56 186.86 729.6 197.68 739.44 208.99 747.77 220.68 754.84 232.57 760.06 244.75 763.24 257.13 764.93 269.62 764.6 282.25 762.31 294.96 760.75 301.33 758.79 307.72 756.46 314.11 753.98 320.51 751.22 326.91 748.23 333.31 745.24 339.71 742.12 346.11 738.94 352.49 735.92 358.88 732.95 365.26 730.08 371.61 727.53 377.97 725.18 384.3 723.08 390.61 721.42 396.92 720.09 403.2 719.11 409.44 718.65 415.68 718.57 421.8 718.86 427.81 719.66 433.81 720.79 439.69 722.22 445.44 724.08 451.19 726.17 456.8 728.44 462.28 732.34 470.4 740.56 485.92 744.55 493.29 747.16 498.13 749.54 502.82 751.64 507.35 755.37 516.36 757.51 524.75 757.88 532.5 756.96 540.25 754.05 547.43 749.22 554.12 743.04 560.94 735.13 567.43 725.74 573.72 715.39 580.41 703.97 587.16 691.74 594.11 679.14 601.81 666.13 610 652.94 618.8 639.86 628.61 626.84 639.18 614.01 650.52 601.53 662.79 589.33 675.67 577.41 688.96 565.91 702.62 554.65 716.14 543.6 729.13 532.88 741.47 522.27 752.51 511.72 761.79 501.37 769.39 490.97 774.63 480.47 777.24 472.64 777.69 456.77 774.6 448.72 771.21 443.34 768.42 437.9 765.16 432.4 761.5 426.9 757.69 421.34 753.62 415.72 749.36 410.09 745.18 404.4 740.98 398.65 736.85 392.9 733.03 387.08 729.42 381.2 726.11 375.32 723.31 369.46 720.94 363.61 719.03 354.84 717.34 337.44 717.3 328.82 718.82 323.1 720.5 317.41 722.49 311.77 724.74 306.15 727.36 300.57 730.1 295.05 732.91 289.55 735.88 284.1 738.78 278.73 741.53 268.04 746.88 257.65 750.9 247.61 753.23 237.65 754.23 228.07 753.03 218.89 749.61 209.8 744.51 201.11 737.29 192.86 728.22 184.64 717.86 176.82 706.12 169.41 693.37 161.96 680.06 154.87 666.26 148.13 652.27 141.26 638.37 134.68 624.62 128.38 611.17 121.89 598.18 115.63 585.61 109.63 573.46 103.4 561.86 97.43 550.62 91.74 539.69 85.85 529.19 80.3 518.85 75.12 508.59 69.85 498.6 65.02 488.55 60.7 478.36 57.53 470.76 51.94 455.31 49.54 447.42 47.35 439.47 43.86 423.15 42.58 414.77 41.54 406.31 40.45 388.93 40.42 380.02 40.5 374.05 40.77 368.07 41.22 362.08 41.72 356.1 42.39 350.11 43.25 344.12 44.13 338.14 45.19 332.17 46.41 326.22 47.66 320.28 49.07 314.36 50.64 308.48 52.22 302.61 53.95 296.78 55.81 291.01 57.68 285.25 59.69 279.55 61.82 273.92 66.03 262.76 70.71 251.91 75.78 241.46 80.7 231.19 85.96 221.38 91.52 212.11 96.87 203.06 102.49 194.58 108.38 186.72 114.05 179.06 120 172 126.23 165.55 132.31 159.19 138.74 153.35 145.5 148 152.21 142.53 159.33 137.39 166.86 132.5 174.42 127.26 182.44 122.1 190.9 116.95 199.45 111.25 208.47 105.45 217.9 99.55 227.46 93.06 237.42 86.49 247.75 79.92 258.2 72.98 268.97 66.24 280.02 59.87 285.57 56.69 291.19 53.65 296.86 50.79 302.55 48 308.29 45.43 314.06 43.08 319.86 40.86 325.68 38.91 331.54 37.25 337.41 35.76 343.3 34.58 349.2 33.72 355.12 33.05 361.04 32.72 366.97 32.72 372.9 32.91 378.84 33.43 384.77 34.28" stroke-dasharray="16 3" transform="rotate(17.473684210526315, 400, 400)" opacity="0.25"></path><path d="M382.13 45.44C390.65 47.09 407.36 51.83 415.55 54.8 426.41 58.96 437 63.63 447.32 68.6 457.67 73.24 467.78 77.93 477.67 82.57 487.65 86.6 497.5 90.5 507.24 94.29 517.17 97.46 527.1 100.62 537.09 103.83 547.4 106.67 557.87 109.77 568.54 113.22 579.63 116.61 590.99 120.56 602.63 125.13 614.68 129.9 626.96 135.41 639.4 141.67 652.05 148.28 664.67 155.67 677.07 163.78 689.28 172.27 700.93 181.43 711.75 191.18 721.84 201.25 730.69 211.82 738.06 222.8 744.21 234.01 748.6 245.54 751.08 257.31 752.22 269.21 751.51 281.29 749.03 293.46 745.65 305.72 740.98 318.02 735.33 330.32 729.76 342.66 723.97 354.98 718.37 367.2 716 373.32 713.83 379.41 711.87 385.47 710.34 391.54 709.09 397.56 708.16 403.55 707.67 412.47 709.05 429.71 710.84 438.02 714.57 449 718.99 459.45 723.74 469.35 729.1 479.21 734.04 488.5 738.18 497.22 741.89 505.91 744.2 514.04 744.92 521.65 744.53 529.3 742.31 536.51 738.29 543.35 733.03 550.4 726.11 557.24 717.72 564 708.39 571.22 697.92 578.58 686.58 586.23 674.78 594.62 662.46 603.51 649.83 612.99 637.19 623.36 624.49 634.4 611.86 646.07 599.49 658.48 587.3 671.31 575.33 684.34 563.7 697.53 552.29 710.41 541.08 722.58 530.18 733.99 519.4 744.02 508.71 752.27 498.23 758.9 487.75 763.25 477.23 765.14 466.83 765.14 456.32 762.76 445.67 758.16 435.07 752.38 424.28 745.17 413.32 737.04 407.84 733.07 402.31 729.09 396.73 725.17 391.16 721.54 385.53 718.11 379.86 714.95 371.37 711.11 354.52 706.36 346.17 705.51 335.07 706.38 324.12 708.78 313.38 712.36 302.67 717.37 292.2 722.68 281.99 727.82 271.85 732.98 262.01 737.04 252.51 739.63 243.08 741.12 234.01 740.63 225.32 738.11 216.69 734.07 208.44 728.01 200.59 720.14 192.74 711 185.27 700.43 178.16 688.74 170.99 676.39 164.14 663.38 157.61 650.01 150.93 636.56 144.51 623.1 138.35 609.78 131.98 596.76 125.84 584.05 119.94 571.68 113.8 559.76 107.91 548.16 102.29 536.87 96.48 525.97 90.99 515.27 85.87 504.71 80.65 494.42 75.86 484.13 71.56 473.81 67.28 463.63 63.56 453.3 60.45 442.78 57.46 432.32 55.13 421.62 53.5 410.66 52.47 402.41 51.39 385.56 51.36 376.97 51.59 368.35 53.05 351.15 54.26 342.58 56.09 331.19 58.59 319.9 61.71 308.78 64.89 297.71 68.63 286.86 72.87 276.3 77.07 265.85 81.7 255.74 86.72 246.05 91.58 236.51 96.77 227.44 102.25 218.89 107.51 210.51 113.03 202.68 118.8 195.42 124.34 188.29 130.15 181.71 136.21 175.66 142.11 169.63 148.31 164.05 154.83 158.86 161.27 153.49 168.07 148.38 175.26 143.45 182.44 138.12 190.05 132.84 198.07 127.52 206.15 121.67 214.66 115.71 223.57 109.65 232.58 103.06 241.99 96.42 251.75 89.81 261.6 82.89 271.79 76.22 282.25 69.94 292.8 63.75 303.58 58.25 314.56 53.62 325.58 49.5 336.76 46.48 348.04 44.7 356.53 43.94 373.58 44.32 382.13 45.44" stroke-dasharray="20 1" transform="rotate(19.657894736842103, 400, 400)" opacity="0.27"></path><path d="M380.36 56.6C391.34 58.74 402.11 61.89 412.67 65.86 423.23 69.98 433.59 74.61 443.74 79.56 453.93 84.2 463.95 88.93 473.83 93.63 483.81 97.76 493.71 101.77 503.58 105.66 513.63 108.95 523.73 112.2 533.93 115.48 544.41 118.34 555.06 121.4 565.91 124.74 577.1 127.95 588.53 131.64 600.17 135.86 612.1 140.21 624.18 145.23 636.31 150.92 648.53 156.9 660.6 163.61 672.33 171 683.78 178.73 694.57 187.13 704.47 196.11 713.61 205.4 721.5 215.21 727.93 225.45 733.23 235.92 736.85 246.75 738.7 257.84 739.36 269.09 738.33 280.55 735.72 292.13 732.35 303.8 727.85 315.55 722.49 327.31 717.27 339.12 711.88 350.91 706.69 362.62 702.64 374.35 699.4 385.98 697.22 397.45 696.8 408.92 697.6 419.93 699.48 430.46 702.85 440.98 706.86 451 711.2 460.5 716.17 469.99 720.8 478.96 724.76 487.43 728.4 495.91 730.82 503.92 731.83 511.51 731.87 519.18 730.26 526.53 726.99 533.63 722.58 540.98 716.59 548.24 709.17 555.51 700.83 563.27 691.34 571.25 680.92 579.55 669.98 588.54 658.42 598.03 646.46 608.06 634.37 618.85 622.11 630.19 609.82 642.02 597.68 654.4 585.63 667.03 573.74 679.66 562.11 692.27 550.66 704.4 539.39 715.69 528.37 726.14 517.49 735.17 506.73 742.42 496.16 748.11 485.63 751.65 475.11 752.88 464.71 752.4 454.26 749.75 443.74 745.09 433.27 739.43 422.68 732.5 411.98 724.75 401.29 717.38 390.46 710.23 379.51 703.79 368.55 699.12 357.74 695.97 347.1 694.42 336.46 694.99 326.01 696.96 315.78 700.06 305.58 704.55 295.62 709.4 285.95 714.17 276.32 719.11 266.98 723.12 257.99 725.89 249.04 727.77 240.43 727.89 232.19 726.17 223.98 723.09 216.12 718.12 208.63 711.4 201.11 703.46 193.94 694.07 187.1 683.49 180.17 672.18 173.52 660.08 167.17 647.47 160.65 634.64 154.37 621.64 148.33 608.63 142.07 595.78 136.02 583.12 130.19 570.7 124.14 558.62 118.32 546.81 112.76 535.29 107.03 524.1 101.6 513.12 96.52 502.32 91.36 491.76 86.62 481.28 82.35 470.83 78.11 460.52 74.42 450.15 71.32 439.69 68.35 429.28 66.03 418.72 64.41 408 62.97 397.29 62.26 386.38 62.31 375.3 62.56 364.21 63.56 353.21 65.26 342.34 67.11 331.49 69.62 320.79 72.74 310.3 75.92 299.87 79.65 289.69 83.86 279.82 88.03 270.05 92.63 260.64 97.58 251.65 102.4 242.79 107.53 234.38 112.93 226.47 118.11 218.69 123.55 211.41 129.21 204.66 134.65 197.98 140.34 191.78 146.25 186.04 151.99 180.26 158.01 174.84 164.31 169.74 170.5 164.41 177.04 159.26 183.91 154.24 190.76 148.8 197.99 143.36 205.6 137.87 213.25 131.86 221.3 125.75 229.73 119.56 238.22 112.88 247.1 106.18 256.32 99.57 265.62 92.7 275.24 86.12 285.15 79.96 295.12 73.93 305.34 68.61 315.78 64.15 326.25 60.2 336.9 57.35 347.68 55.69 358.47 54.74 369.38 55.04 380.35 56.6" stroke-dasharray="15 24" transform="rotate(21.842105263157894, 400, 400)" opacity="0.30"></path><path d="M379.55 67.76C390.12 69.89 400.55 73 410.83 76.9 421.11 80.97 431.26 85.55 441.26 90.46 451.31 95.11 461.25 99.86 471.12 104.61 481.08 108.82 491.03 112.94 500.99 116.94 511.12 120.36 521.34 123.72 531.66 127.07 542.23 129.99 552.97 133.05 563.88 136.33 575.07 139.42 586.43 142.91 597.93 146.85 609.64 150.85 621.39 155.43 633.09 160.62 644.78 166.03 656.2 172.11 667.19 178.84 677.82 185.85 687.73 193.5 696.69 201.73 704.9 210.24 711.87 219.28 717.42 228.76 721.92 238.47 724.85 248.56 726.14 258.94 726.38 269.49 725.1 280.27 722.39 291.2 719.08 302.24 714.76 313.38 709.7 324.56 704.84 335.8 699.84 347.03 695.04 358.21 691.31 369.41 688.32 380.53 686.27 391.5 685.85 402.47 686.51 413.03 688.15 423.14 691.18 433.24 694.8 442.89 698.74 452.08 703.32 461.27 707.62 470.02 711.37 478.34 714.92 486.7 717.39 494.69 718.61 502.35 719.03 510.14 717.94 517.7 715.33 525.12 711.71 532.82 706.59 540.52 700.1 548.32 692.72 556.59 684.2 565.13 674.71 574 664.67 583.51 653.94 593.46 642.71 603.89 631.27 614.94 619.56 626.43 607.73 638.25 595.95 650.44 584.17 662.71 572.48 674.82 560.97 686.75 549.59 698.06 538.36 708.44 527.33 717.91 516.44 725.93 505.66 732.22 495.06 737.03 484.53 739.81 474.04 740.45 463.67 739.56 453.29 736.69 442.9 732.02 432.56 726.5 422.16 719.85 411.7 712.48 401.26 705.52 390.74 698.75 380.15 692.63 369.55 688.14 359.14 685.02 348.94 683.36 338.73 683.64 328.74 685.23 318.99 687.86 309.25 691.84 299.77 696.23 290.59 700.61 281.42 705.27 272.56 709.19 264.02 712.06 255.5 714.22 247.31 714.84 239.47 713.81 231.63 711.59 224.11 707.62 216.94 702 209.71 695.21 202.79 686.99 196.18 677.55 189.45 667.32 182.98 656.21 176.77 644.48 170.39 632.41 164.22 620.03 158.27 607.5 152.11 595.01 146.14 582.57 140.38 570.28 134.4 558.21 128.65 546.36 123.14 534.74 117.48 523.39 112.11 512.24 107.08 501.28 101.99 490.54 97.3 479.92 93.07 469.38 88.88 458.97 85.22 448.58 82.15 438.16 79.21 427.81 76.92 417.39 75.31 406.88 73.89 396.39 73.2 385.79 73.26 375.09 73.53 364.39 74.53 353.85 76.24 343.49 78.1 333.14 80.61 323 83.71 313.12 86.89 303.27 90.6 293.71 94.78 284.49 98.92 275.34 103.47 266.57 108.38 258.22 113.15 249.95 118.22 242.13 123.55 234.78 128.67 227.51 134.04 220.7 139.61 214.36 144.96 208.03 150.54 202.11 156.33 196.59 161.94 190.97 167.79 185.63 173.91 180.55 179.9 175.19 186.19 169.96 192.79 164.81 199.34 159.23 206.24 153.63 213.49 147.97 220.74 141.8 228.37 135.56 236.35 129.25 244.38 122.51 252.77 115.8 261.49 109.2 270.26 102.41 279.36 95.94 288.74 89.93 298.17 84.08 307.86 78.94 317.78 74.67 327.73 70.91 337.87 68.22 348.18 66.68 358.5 65.84 368.96 66.19 379.54 67.76" stroke-dasharray="23 8" transform="rotate(24.026315789473685, 400, 400)" opacity="0.33"></path><path d="M379.73 78.92C389.93 81.03 400.04 84.09 410.05 87.92 420.08 91.93 430.02 96.45 439.88 101.31 449.79 105.95 459.65 110.71 469.49 115.49 479.42 119.78 489.37 124 499.37 128.11 509.52 131.66 519.78 135.14 530.14 138.59 540.72 141.59 551.44 144.69 562.3 147.95 573.36 150.98 584.54 154.33 595.78 158.05 607.14 161.77 618.45 165.99 629.61 170.75 640.67 175.66 651.39 181.18 661.58 187.29 671.36 193.64 680.37 200.59 688.41 208.1 695.71 215.85 701.79 224.13 706.53 232.86 710.29 241.8 712.6 251.13 713.4 260.79 713.29 270.61 711.81 280.68 709.07 290.95 705.83 301.31 701.72 311.81 696.98 322.38 692.46 333.01 687.85 343.67 683.42 354.31 680 364.96 677.24 375.56 675.32 386.06 674.89 396.55 675.43 406.67 676.85 416.41 679.55 426.14 682.8 435.48 686.35 444.43 690.54 453.39 694.52 461.99 698.04 470.24 701.45 478.56 703.93 486.6 705.31 494.4 706.02 502.36 705.38 510.19 703.36 517.95 700.43 526.01 696.11 534.15 690.5 542.43 684.05 551.16 676.47 560.17 667.91 569.52 658.78 579.41 648.91 589.69 638.48 600.36 627.77 611.52 616.71 622.98 605.43 634.63 594.13 646.49 582.74 658.27 571.36 669.74 560.1 680.9 548.9 691.34 537.81 700.77 526.88 709.27 516.06 716.32 505.35 721.69 494.79 725.68 484.31 727.76 473.9 727.87 463.59 726.62 453.32 723.59 443.07 718.94 432.87 713.58 422.66 707.22 412.44 700.24 402.24 693.67 392 687.28 381.75 681.47 371.5 677.17 361.46 674.08 351.66 672.31 341.85 672.34 332.28 673.56 322.97 675.76 313.66 679.25 304.62 683.16 295.87 687.15 287.12 691.5 278.68 695.26 270.55 698.15 262.42 700.51 254.6 701.53 247.11 701.09 239.58 699.62 232.37 696.55 225.46 691.93 218.48 686.24 211.78 679.15 205.35 670.84 198.79 661.73 192.47 651.67 186.38 640.9 180.11 629.71 174.03 618.07 168.16 606.18 162.07 594.21 156.17 582.16 150.47 570.17 144.56 558.29 138.87 546.55 133.42 534.98 127.83 523.62 122.52 512.43 117.55 501.42 112.52 490.6 107.89 479.9 103.71 469.34 99.58 458.89 95.97 448.5 92.94 438.16 90.05 427.88 87.78 417.59 86.2 407.3 84.81 397.02 84.14 386.71 84.2 376.37 84.49 366.03 85.5 355.91 87.2 346.03 89.06 336.15 91.56 326.53 94.64 317.2 97.8 307.89 101.48 298.9 105.62 290.26 109.73 281.67 114.24 273.46 119.08 265.66 123.81 257.92 128.83 250.59 134.09 243.7 139.16 236.84 144.46 230.4 149.96 224.37 155.24 218.3 160.73 212.59 166.42 207.2 171.91 201.65 177.63 196.33 183.59 191.21 189.4 185.78 195.49 180.43 201.86 175.12 208.15 169.39 214.76 163.62 221.69 157.78 228.59 151.49 235.84 145.12 243.43 138.73 251.03 131.96 258.97 125.26 267.23 118.71 275.53 112.03 284.14 105.7 293.04 99.85 301.96 94.2 311.16 89.27 320.6 85.19 330.05 81.62 339.73 79.09 349.6 77.68 359.47 76.94 369.52 77.35 379.72 78.91" stroke-dasharray="7 14" transform="rotate(26.210526315789473, 400, 400)" opacity="0.35"></path><path d="M380.89 90.07C390.75 92.17 400.56 95.17 410.32 98.93 420.1 102.87 429.84 107.31 439.55 112.11 449.31 116.72 459.07 121.48 468.84 126.28 478.7 130.64 488.61 134.94 498.58 139.15 508.7 142.84 518.91 146.44 529.23 150 539.71 153.11 550.3 156.28 560.99 159.57 571.82 162.57 582.7 165.84 593.56 169.41 604.46 172.91 615.24 176.85 625.77 181.25 636.14 185.74 646.09 190.77 655.45 196.33 664.36 202.08 672.48 208.39 679.62 215.23 686.04 222.27 691.3 229.82 695.28 237.82 698.38 246.01 700.13 254.6 700.52 263.54 700.12 272.61 698.5 281.97 695.75 291.56 692.63 301.23 688.75 311.08 684.31 321.04 680.14 331.04 675.9 341.12 671.84 351.21 668.71 361.31 666.17 371.41 664.38 381.44 663.94 391.48 664.37 401.2 665.58 410.6 667.97 420 670.86 429.08 674.04 437.84 677.85 446.63 681.5 455.13 684.77 463.38 688.01 471.7 690.45 479.84 691.93 487.82 692.87 495.97 692.6 504.08 691.09 512.18 688.79 520.58 685.2 529.11 680.39 537.81 674.81 546.91 668.14 556.29 660.49 565.97 652.28 576.11 643.3 586.57 633.69 597.31 623.78 608.42 613.43 619.69 602.79 631.02 592.05 642.42 581.16 653.59 570.2 664.34 559.29 674.67 548.39 684.2 537.55 692.67 526.82 700.21 516.16 706.33 505.61 710.83 495.17 714.05 484.81 715.51 474.53 715.16 464.34 713.61 454.2 710.46 444.12 705.86 434.09 700.69 424.08 694.63 414.1 688.03 404.14 681.84 394.18 675.82 384.25 670.31 374.31 666.19 364.62 663.15 355.19 661.3 345.75 661.09 336.56 661.96 327.65 663.75 318.72 666.76 310.08 670.21 301.72 673.79 293.35 677.8 285.28 681.36 277.51 684.2 269.71 686.68 262.21 688 255.02 688.03 247.77 687.21 240.81 684.94 234.13 681.23 227.35 676.56 220.83 670.55 214.55 663.34 208.14 655.34 201.93 646.36 195.94 636.6 189.76 626.36 183.76 615.59 177.95 604.45 171.93 593.14 166.09 581.64 160.44 570.1 154.6 558.58 148.97 547.11 143.58 535.75 138.06 524.52 132.82 513.42 127.92 502.49 122.96 491.69 118.4 481.03 114.29 470.51 110.23 460.09 106.68 449.77 103.69 439.53 100.86 429.36 98.63 419.23 97.08 409.15 95.73 399.09 95.08 389.05 95.15 379.06 95.45 369.06 96.46 359.33 98.15 349.88 100 340.44 102.48 331.28 105.53 322.45 108.66 313.63 112.3 305.14 116.38 297.01 120.45 288.91 124.91 281.18 129.7 273.84 134.38 266.53 139.34 259.61 144.54 253.09 149.56 246.55 154.8 240.38 160.23 234.57 165.46 228.67 170.87 223.07 176.47 217.73 181.88 212.2 187.49 206.84 193.31 201.62 198.98 196.09 204.9 190.59 211.07 185.12 217.14 179.23 223.5 173.29 230.15 167.31 236.75 160.9 243.67 154.45 250.91 148 258.12 141.23 265.67 134.57 273.52 128.11 281.38 121.56 289.56 115.39 298.01 109.73 306.48 104.3 315.22 99.58 324.22 95.71 333.22 92.34 342.46 89.97 351.91 88.69 361.37 88.04 371.03 88.5 380.88 90.07" stroke-dasharray="5 1" transform="rotate(28.394736842105264, 400, 400)" opacity="0.38"></path><path d="M382.99 101.23C392.51 103.3 402.04 106.24 411.55 109.91 421.08 113.77 430.63 118.13 440.17 122.86 449.76 127.43 459.39 132.17 469.04 136.98 478.79 141.39 488.6 145.77 498.47 150.07 508.47 153.87 518.55 157.61 528.72 161.29 539.01 164.52 549.37 167.79 559.77 171.12 570.26 174.16 580.73 177.39 591.12 180.87 601.48 184.23 611.63 187.95 621.47 192.06 631.1 196.21 640.24 200.82 648.75 205.92 656.8 211.14 664.04 216.88 670.32 223.11 675.91 229.5 680.4 236.38 683.69 243.69 686.2 251.17 687.47 259.05 687.51 267.28 686.88 275.63 685.17 284.29 682.46 293.2 679.48 302.2 675.83 311.39 671.71 320.73 667.88 330.12 664 339.61 660.28 349.17 657.43 358.73 655.1 368.34 653.43 377.93 652.99 387.53 653.31 396.88 654.33 405.98 656.44 415.08 658.99 423.94 661.81 432.56 665.25 441.21 668.57 449.66 671.58 457.93 674.62 466.29 676.98 474.53 678.51 482.7 679.61 491.05 679.65 499.4 678.56 507.81 676.81 516.5 673.87 525.33 669.8 534.35 665.03 543.72 659.21 553.35 652.45 563.22 645.13 573.46 637.03 583.93 628.28 594.6 619.18 605.49 609.6 616.44 599.67 627.31 589.58 638.12 579.27 648.6 568.83 658.54 558.37 668.01 547.87 676.61 537.37 684.12 526.94 690.72 516.55 695.95 506.23 699.65 496 702.18 485.83 703.07 475.74 702.32 465.73 700.53 455.78 697.3 445.89 692.79 436.06 687.82 426.27 682.07 416.53 675.84 406.82 670.02 397.14 664.36 387.51 659.15 377.88 655.21 368.52 652.23 359.42 650.3 350.32 649.88 341.48 650.44 332.93 651.83 324.35 654.39 316.05 657.38 308.04 660.55 300.01 664.2 292.26 667.51 284.8 670.25 277.29 672.76 270.07 674.29 263.12 674.7 256.11 674.41 249.36 672.82 242.86 669.94 236.26 666.19 229.88 661.18 223.73 655.02 217.43 648.1 211.32 640.2 205.4 631.48 199.3 622.25 193.37 612.41 187.61 602.12 181.66 591.58 175.87 580.77 170.27 569.81 164.5 558.8 158.94 547.75 153.61 536.74 148.17 525.79 143.01 514.93 138.18 504.19 133.31 493.55 128.83 483.02 124.79 472.64 120.82 462.34 117.34 452.14 114.41 442.07 111.64 432.04 109.47 422.1 107.95 412.25 106.64 402.42 106.01 392.66 106.1 382.99 106.41 373.32 107.42 363.95 109.08 354.9 110.92 345.85 113.37 337.12 116.37 328.72 119.46 320.32 123.05 312.26 127.07 304.57 131.09 296.87 135.49 289.54 140.21 282.59 144.84 275.62 149.74 269.01 154.88 262.76 159.86 256.45 165.04 250.47 170.41 244.79 175.58 238.99 180.93 233.43 186.46 228.08 191.79 222.5 197.31 217.06 203.03 211.71 208.58 206.05 214.36 200.4 220.36 194.75 226.25 188.72 232.4 182.64 238.81 176.52 245.16 170.03 251.79 163.52 258.72 157.05 265.61 150.33 272.81 143.75 280.3 137.39 287.77 131.01 295.55 125.04 303.61 119.58 311.66 114.38 319.99 109.89 328.58 106.23 337.17 103.07 346.01 100.87 355.09 99.71 364.16 99.16 373.46 99.66 382.98 101.23" stroke-dasharray="14 20" transform="rotate(30.57894736842105, 400, 400)" opacity="0.40"></path><path d="M385.92 112.39C395.12 114.43 404.37 117.3 413.63 120.88 422.91 124.65 432.23 128.92 441.59 133.55 450.98 138.07 460.43 142.78 469.93 147.57 479.5 152.02 489.14 156.46 498.84 160.84 508.64 164.76 518.51 168.62 528.42 172.42 538.42 175.79 548.46 179.16 558.48 182.58 568.53 185.68 578.5 188.93 588.32 192.37 598.06 195.64 607.53 199.21 616.63 203.12 625.48 206.99 633.79 211.28 641.46 215.99 648.66 220.77 655.05 226.01 660.51 231.71 665.34 237.52 669.13 243.78 671.8 250.47 673.78 257.29 674.65 264.5 674.4 272.07 673.6 279.74 671.84 287.73 669.21 295.99 666.38 304.32 662.98 312.89 659.18 321.63 655.68 330.41 652.14 339.34 648.75 348.38 646.17 357.43 644.04 366.56 642.48 375.74 642.05 384.92 642.27 393.93 643.11 402.75 644.94 411.58 647.18 420.25 649.66 428.74 652.74 437.28 655.73 445.69 658.46 453.99 661.3 462.39 663.54 470.73 665.07 479.07 666.28 487.56 666.55 496.12 665.82 504.77 664.52 513.66 662.16 522.7 658.75 531.93 654.72 541.44 649.7 551.17 643.77 561.09 637.32 571.27 630.08 581.61 622.18 592.04 613.93 602.58 605.15 613.06 595.96 623.36 586.58 633.49 576.92 643.2 567.07 652.29 557.16 660.86 547.15 668.53 537.08 675.11 527.05 680.82 517 685.21 507 688.16 497.05 690.06 487.15 690.46 477.32 689.38 467.55 687.4 457.83 684.13 448.19 679.74 438.59 674.98 429.04 669.54 419.57 663.68 410.12 658.23 400.71 652.91 391.38 648 382.05 644.23 372.99 641.31 364.22 639.33 355.43 638.72 346.91 638.98 338.68 640.01 330.42 642.14 322.43 644.69 314.72 647.44 306.98 650.71 299.51 653.74 292.31 656.32 285.06 658.79 278.06 660.44 271.33 661.14 264.51 661.27 257.93 660.26 251.59 658.09 245.13 655.17 238.87 651.08 232.81 645.89 226.61 640.01 220.58 633.16 214.72 625.47 208.69 617.27 202.82 608.4 197.11 599.02 191.22 589.35 185.49 579.32 179.95 569.06 174.25 558.68 168.76 548.19 163.51 537.66 158.16 527.13 153.08 516.63 148.34 506.21 143.57 495.84 139.18 485.57 135.23 475.41 131.35 465.32 127.95 455.33 125.1 445.47 122.4 435.65 120.29 425.94 118.82 416.34 117.55 406.77 116.95 397.29 117.04 387.94 117.36 378.58 118.36 369.56 120 360.87 121.81 352.17 124.22 343.8 127.16 335.78 130.21 327.75 133.73 320.06 137.69 312.72 141.65 305.36 145.98 298.35 150.63 291.68 155.19 284.97 160.03 278.59 165.11 272.52 170.03 266.37 175.16 260.5 180.47 254.88 185.59 249.11 190.89 243.53 196.34 238.11 201.62 232.46 207.06 226.9 212.69 221.41 218.14 215.61 223.81 209.81 229.67 204 235.41 197.83 241.39 191.64 247.6 185.42 253.73 178.88 260.13 172.36 266.79 165.91 273.4 159.26 280.3 152.79 287.47 146.59 294.61 140.4 302.04 134.64 309.74 129.41 317.42 124.45 325.38 120.2 333.61 116.76 341.82 113.8 350.3 111.77 359.02 110.74 367.73 110.28 376.7 110.83 385.91 112.39" stroke-dasharray="10 5" transform="rotate(32.76315789473684, 400, 400)" opacity="0.42"></path><path d="M389.53 123.55C398.43 125.55 407.39 128.35 416.39 131.83 425.41 135.5 434.49 139.66 443.62 144.2 452.78 148.65 462.01 153.3 471.29 158.07 480.62 162.53 490.03 167.01 499.48 171.45 509 175.48 518.56 179.46 528.14 183.38 537.77 186.88 547.38 190.38 556.93 193.9 566.46 197.09 575.86 200.39 585.04 203.84 594.11 207.08 602.85 210.57 611.18 214.33 619.23 218.02 626.72 222.05 633.55 226.46 639.94 230.88 645.53 235.71 650.22 240.95 654.35 246.26 657.5 251.99 659.62 258.13 661.16 264.35 661.68 270.96 661.21 277.92 660.29 284.96 658.52 292.33 656 299.98 653.35 307.69 650.2 315.65 646.71 323.83 643.54 332.03 640.33 340.43 637.25 348.97 634.92 357.52 632.98 366.2 631.54 374.99 631.1 383.77 631.24 392.46 631.92 401.03 633.5 409.6 635.43 418.08 637.59 426.47 640.31 434.89 642.98 443.25 645.44 451.57 648.04 459.98 650.15 468.4 651.63 476.84 652.89 485.44 653.33 494.12 652.88 502.91 651.97 511.91 650.1 521.05 647.28 530.36 643.91 539.88 639.62 549.56 634.47 559.38 628.84 569.36 622.44 579.42 615.37 589.47 607.95 599.53 599.98 609.44 591.57 619.06 582.94 628.44 573.99 637.32 564.78 645.54 555.49 653.2 546.03 659.95 536.48 665.64 526.92 670.49 517.31 674.1 507.7 676.38 498.12 677.71 488.55 677.7 479.04 676.33 469.57 674.21 460.14 670.95 450.78 666.7 441.46 662.16 432.19 657.03 423 651.54 413.82 646.45 404.71 641.47 395.67 636.84 386.64 633.24 377.88 630.4 369.4 628.38 360.91 627.6 352.69 627.6 344.74 628.29 336.77 630 329.05 632.12 321.61 634.47 314.13 637.35 306.9 640.07 299.92 642.45 292.89 644.82 286.09 646.51 279.53 647.39 272.88 647.85 266.44 647.31 260.22 645.73 253.88 643.53 247.72 640.26 241.75 635.97 235.62 631.05 229.66 625.2 223.86 618.51 217.9 611.33 212.08 603.46 206.42 595.02 200.6 586.27 194.94 577.09 189.46 567.61 183.85 557.97 178.44 548.14 173.26 538.21 168.02 528.22 163.04 518.21 158.39 508.22 153.74 498.24 149.46 488.32 145.6 478.49 141.83 468.69 138.53 458.99 135.76 449.42 133.14 439.87 131.1 430.43 129.68 421.12 128.46 411.82 127.89 402.64 127.99 393.6 128.32 384.56 129.3 375.85 130.9 367.49 132.68 359.12 135.04 351.08 137.92 343.38 140.9 335.66 144.36 328.27 148.23 321.22 152.12 314.13 156.37 307.35 160.93 300.9 165.43 294.38 170.2 288.15 175.2 282.19 180.07 276.13 185.13 270.3 190.38 264.68 195.45 258.89 200.7 253.25 206.1 247.74 211.32 241.99 216.7 236.3 222.24 230.66 227.63 224.72 233.19 218.78 238.95 212.83 244.57 206.56 250.4 200.28 256.45 194 262.4 187.46 268.6 180.97 275.03 174.57 281.41 168.05 288.04 161.72 294.93 155.7 301.79 149.73 308.91 144.2 316.3 139.22 323.66 134.52 331.29 130.51 339.18 127.3 347.05 124.55 355.19 122.69 363.59 121.78 371.97 121.41 380.62 122 389.52 123.55" stroke-dasharray="7 6" transform="rotate(34.94736842105263, 400, 400)" opacity="0.45"></path><path d="M393.65 134.71C402.25 136.67 410.92 139.39 419.65 142.76 428.39 146.33 437.2 150.38 446.06 154.8 454.95 159.16 463.91 163.75 472.91 168.47 481.95 172.93 491.05 177.42 500.18 181.91 509.34 186.02 518.53 190.1 527.68 194.13 536.85 197.77 545.97 201.39 554.97 205.03 563.91 208.33 572.68 211.71 581.18 215.2 589.53 218.47 597.52 221.93 605.07 225.61 612.32 229.17 619.01 233.03 625.04 237.2 630.64 241.35 635.49 245.85 639.48 250.72 642.97 255.62 645.56 260.9 647.21 266.56 648.36 272.27 648.6 278.34 647.96 284.76 646.97 291.24 645.23 298.04 642.84 305.14 640.38 312.28 637.5 319.69 634.32 327.33 631.45 335 628.57 342.89 625.79 350.97 623.69 359.05 621.93 367.31 620.59 375.72 620.16 384.14 620.22 392.51 620.75 400.83 622.09 409.17 623.74 417.46 625.59 425.72 627.99 434.02 630.34 442.32 632.52 450.62 634.88 459 636.81 467.43 638.23 475.92 639.49 484.53 640.03 493.25 639.81 502.08 639.21 511.06 637.75 520.18 635.43 529.42 632.66 538.82 629.02 548.32 624.59 557.89 619.71 567.54 614.1 577.18 607.84 586.72 601.23 596.19 594.07 605.43 586.43 614.31 578.58 622.88 570.35 630.91 561.84 638.23 553.21 644.99 544.37 650.86 535.39 655.69 526.37 659.75 517.26 662.66 508.11 664.32 498.97 665.17 489.81 664.79 480.68 663.21 471.56 660.99 462.48 657.77 453.45 653.68 444.44 649.38 435.48 644.57 426.6 639.43 417.72 634.69 408.91 630.04 400.17 625.68 391.44 622.26 382.97 619.49 374.78 617.44 366.57 616.51 358.62 616.28 350.94 616.66 343.23 617.98 335.77 619.7 328.56 621.64 321.3 624.13 314.28 626.53 307.5 628.67 300.65 630.88 294.02 632.54 287.61 633.53 281.1 634.21 274.79 634.04 268.67 632.95 262.43 631.36 256.36 628.8 250.45 625.3 244.41 621.26 238.51 616.33 232.76 610.6 226.87 604.4 221.11 597.5 215.51 590.02 209.77 582.2 204.18 573.92 198.78 565.29 193.26 556.45 187.95 547.37 182.87 538.12 177.74 528.78 172.88 519.35 168.34 509.88 163.82 500.4 159.66 490.93 155.91 481.52 152.26 472.11 149.07 462.78 146.39 453.55 143.87 444.33 141.9 435.21 140.53 426.22 139.37 417.24 138.83 408.37 138.94 399.65 139.27 390.92 140.23 382.52 141.79 374.46 143.54 366.38 145.83 358.63 148.63 351.2 151.55 343.75 154.92 336.61 158.69 329.77 162.5 322.89 166.66 316.3 171.13 309.99 175.55 303.6 180.23 297.46 185.15 291.56 189.95 285.53 194.95 279.7 200.13 274.03 205.15 268.19 210.34 262.47 215.67 256.84 220.84 250.98 226.17 245.17 231.64 239.39 236.96 233.33 242.45 227.28 248.1 221.22 253.63 214.9 259.34 208.57 265.25 202.28 271.06 195.77 277.08 189.35 283.33 183.06 289.5 176.69 295.92 170.55 302.57 164.74 309.17 159.01 316.03 153.74 323.14 149.02 330.22 144.59 337.55 140.84 345.14 137.85 352.71 135.31 360.54 133.61 368.63 132.83 376.7 132.54 385.04 133.17 393.64 134.71" stroke-dasharray="1 2" transform="rotate(37.131578947368425, 400, 400)" opacity="0.47"></path><path d="M398.08 145.87C406.38 147.78 414.75 150.42 423.18 153.68 431.62 157.13 440.13 161.05 448.68 165.35 457.26 169.61 465.9 174.11 474.57 178.77 483.26 183.2 491.99 187.69 500.72 192.2 509.46 196.38 518.19 200.54 526.86 204.66 535.51 208.43 544.06 212.18 552.45 215.92 560.77 219.35 568.86 222.84 576.65 226.4 584.26 229.72 591.5 233.19 598.26 236.85 604.74 240.35 610.65 244.1 615.92 248.12 622.88 254.2 632.28 267.93 634.58 275.65 635.41 280.93 635.44 286.55 634.69 292.5 633.66 298.49 631.99 304.79 629.75 311.39 627.49 318.02 624.87 324.93 622 332.09 619.43 339.27 616.84 346.7 614.35 354.34 612.47 361.99 610.88 369.85 609.64 377.91 609.22 385.97 609.22 394.04 609.6 402.11 610.73 410.2 612.12 418.3 613.68 426.41 615.76 434.55 617.8 442.74 619.71 450.97 621.81 459.27 623.56 467.64 624.87 476.08 626.09 484.63 626.69 493.28 626.62 502.02 626.27 510.89 625.15 519.85 623.26 528.9 620.99 538.03 617.94 547.22 614.15 556.4 609.97 565.59 605.09 574.7 599.58 583.63 593.75 592.44 587.37 600.93 580.5 609.01 573.42 616.75 565.94 623.91 558.14 630.34 550.2 636.24 542.02 641.25 533.66 645.29 525.24 648.62 516.68 650.88 508.05 652.02 499.4 652.44 490.71 651.76 482 650.02 473.3 647.75 464.61 644.6 455.95 640.69 447.3 636.64 438.69 632.14 430.14 627.36 421.59 622.95 413.09 618.61 404.67 614.52 396.24 611.28 388.06 608.59 380.15 606.53 372.22 605.47 364.53 605.02 357.1 605.12 349.63 606.09 342.4 607.41 335.4 608.97 328.35 611.07 321.52 613.13 314.91 615 308.23 617.01 301.75 618.58 295.46 619.6 289.08 620.42 282.88 620.5 276.85 619.81 270.71 618.71 264.72 616.75 258.88 613.95 252.92 610.68 247.09 606.59 241.4 601.74 235.58 596.46 229.9 590.5 224.37 583.94 218.71 577.06 213.22 569.69 207.9 561.92 202.5 553.94 197.3 545.66 192.34 537.15 187.34 528.53 182.61 519.76 178.2 510.9 173.81 502.01 169.79 493.07 166.17 484.14 162.64 475.21 159.57 466.31 156.99 457.49 154.58 448.67 152.69 439.92 151.38 431.28 150.28 422.65 149.77 414.12 149.88 405.71 150.22 397.3 151.16 389.21 152.67 381.43 154.37 373.63 156.6 366.14 159.31 358.94 162.14 351.72 165.42 344.78 169.09 338.12 172.8 331.4 176.85 324.94 181.22 318.72 185.54 312.42 190.13 306.33 194.95 300.43 199.67 294.41 204.6 288.54 209.69 282.81 214.66 276.91 219.78 271.09 225.05 265.35 230.17 259.39 235.43 253.47 240.84 247.57 246.1 241.43 251.52 235.3 257.08 229.18 262.52 222.84 268.14 216.52 273.93 210.26 279.61 203.84 285.5 197.53 291.58 191.39 297.58 185.21 303.81 179.3 310.25 173.72 316.64 168.27 323.27 163.27 330.13 158.83 336.95 154.67 344.02 151.18 351.33 148.42 358.62 146.08 366.16 144.56 373.95 143.89 381.73 143.69 389.77 144.35 398.07 145.86" stroke-dasharray="6 13" transform="rotate(39.315789473684205, 400, 400)" opacity="0.50"></path><path d="M402.6 157.03C410.59 158.89 418.65 161.44 426.75 164.58 434.87 167.91 443.05 171.7 451.26 175.86 459.48 180 467.75 184.4 476.03 188.96 484.32 193.35 492.62 197.82 500.89 202.33 509.16 206.55 517.38 210.76 525.5 214.96 533.58 218.84 541.52 222.7 549.27 226.56 556.92 230.11 564.31 233.71 571.37 237.36 578.26 240.76 584.74 244.29 590.75 247.96 599.07 253.3 612.2 264.94 616.77 271.35 620.02 277.99 622.29 292.8 621.4 300.98 620.39 306.55 618.81 312.43 616.73 318.6 614.69 324.77 612.33 331.24 609.74 337.98 607.47 344.71 605.17 351.71 602.94 358.96 601.27 366.2 599.84 373.69 598.7 381.4 598.28 389.12 598.22 396.9 598.48 404.71 599.4 412.53 600.55 420.42 601.85 428.34 603.62 436.3 605.37 444.33 607 452.41 608.85 460.56 610.41 468.79 611.58 477.1 612.73 485.48 613.34 493.95 613.37 502.5 613.19 511.12 612.34 519.81 610.81 528.52 608.97 537.28 606.42 546.03 603.2 554.71 599.64 563.34 595.43 571.82 590.62 580.07 585.52 588.14 579.88 595.85 573.76 603.09 567.42 609.99 560.68 616.28 553.6 621.86 546.38 626.92 538.87 631.14 531.16 634.44 523.37 637.12 515.41 638.81 507.33 639.48 499.23 639.54 491.04 638.63 482.81 636.77 474.58 634.49 466.32 631.45 458.06 627.73 449.82 623.94 441.59 619.74 433.39 615.3 425.2 611.22 417.04 607.19 408.93 603.36 400.82 600.29 392.95 597.7 385.31 595.64 377.66 594.47 370.23 593.83 363.03 593.67 355.81 594.31 348.79 595.27 341.98 596.46 335.14 598.18 328.48 599.89 322.03 601.47 315.51 603.25 309.16 604.68 302.99 605.65 296.74 606.53 290.64 606.78 284.69 606.37 278.65 605.66 272.74 604.19 266.98 601.98 261.1 599.38 255.35 596.03 249.74 591.97 244.01 587.53 238.41 582.45 232.97 576.77 227.42 570.8 222.04 564.32 216.83 557.41 211.56 550.29 206.49 542.83 201.66 535.1 196.81 527.25 192.23 519.2 187.96 511.01 183.73 502.76 179.85 494.42 176.37 486.05 172.99 477.66 170.04 469.25 167.58 460.88 165.27 452.51 163.47 444.19 162.23 435.93 161.18 427.69 160.71 419.51 160.83 411.44 161.16 403.36 162.08 395.57 163.54 388.05 165.18 380.53 167.33 373.28 169.96 366.29 172.7 359.27 175.86 352.5 179.41 345.97 183.01 339.39 186.95 333.03 191.19 326.87 195.41 320.62 199.89 314.55 204.6 308.64 209.23 302.61 214.06 296.7 219.06 290.9 223.95 284.93 229 279.04 234.19 273.2 239.25 267.17 244.45 261.17 249.79 255.19 254.99 249.01 260.34 242.85 265.82 236.72 271.18 230.41 276.71 224.14 282.39 217.97 287.97 211.68 293.73 205.53 299.67 199.58 305.53 193.64 311.59 187.97 317.84 182.66 324.05 177.5 330.46 172.8 337.1 168.64 343.69 164.77 350.52 161.54 357.57 159.01 364.6 156.88 371.87 155.52 379.37 154.96 386.86 154.84 394.61 155.53 402.59 157.02" stroke-dasharray="8 5" transform="rotate(41.5, 400, 400)" opacity="0.53"></path><path d="M407 168.18C414.67 169.99 422.39 172.45 430.15 175.46 437.92 178.66 445.73 182.31 453.55 186.32 461.39 190.33 469.25 194.61 477.09 199.07 484.93 203.38 492.76 207.8 500.52 212.28 508.26 216.51 515.93 220.77 523.46 225.02 530.93 228.98 538.24 232.94 545.32 236.89 552.29 240.57 558.97 244.27 565.32 248.02 571.48 251.53 577.24 255.12 582.53 258.83 589.81 264.21 601.07 275.69 604.87 281.89 607.52 288.26 609.09 302.3 608.13 310.01 607.16 315.24 605.69 320.75 603.8 326.55 601.97 332.35 599.86 338.43 597.57 344.78 595.56 351.13 593.53 357.75 591.55 364.62 590.08 371.49 588.8 378.63 587.75 386.01 587.35 393.39 587.23 400.86 587.38 408.4 588.12 415.95 589.05 423.58 590.1 431.27 591.58 439 593.05 446.8 594.42 454.68 596.02 462.6 597.36 470.6 598.39 478.67 599.42 486.79 600.01 494.98 600.1 503.21 600.03 511.48 599.39 519.78 598.14 528.06 596.65 536.33 594.53 544.54 591.8 552.62 588.78 560.61 585.17 568.4 581 575.9 576.57 583.19 571.62 590.09 566.2 596.49 560.59 602.55 554.56 608.01 548.18 612.76 541.66 617.04 534.84 620.54 527.79 623.17 520.64 625.26 513.3 626.45 505.81 626.73 498.29 626.5 490.64 625.41 482.92 623.49 475.19 621.23 467.4 618.31 459.59 614.81 451.78 611.27 443.96 607.39 436.14 603.28 428.33 599.51 420.53 595.78 412.76 592.2 404.99 589.3 397.42 586.81 390.07 584.76 382.7 583.51 375.53 582.7 368.57 582.32 361.58 582.65 354.78 583.28 348.16 584.12 341.51 585.46 335.03 586.83 328.72 588.12 322.36 589.63 316.15 590.87 310.1 591.75 303.97 592.61 297.98 592.95 292.13 592.73 286.2 592.3 280.38 591.22 274.71 589.48 268.93 587.44 263.27 584.72 257.75 581.36 252.13 577.68 246.64 573.38 241.31 568.52 235.89 563.39 230.63 557.76 225.56 551.69 220.44 545.42 215.52 538.78 210.84 531.84 206.16 524.77 201.74 517.47 197.63 509.98 193.57 502.42 189.86 494.72 186.52 486.95 183.3 479.14 180.49 471.28 178.14 463.42 175.95 455.54 174.25 447.67 173.07 439.84 172.09 432 171.65 424.21 171.78 416.48 172.11 408.75 172.99 401.26 174.4 394.02 175.98 386.76 178.05 379.74 180.57 372.94 183.2 366.12 186.25 359.5 189.67 353.09 193.15 346.63 196.96 340.35 201.06 334.23 205.16 328.04 209.51 321.98 214.09 316.06 218.61 310.02 223.33 304.07 228.23 298.21 233.03 292.21 237.99 286.26 243.09 280.36 248.08 274.29 253.2 268.25 258.45 262.24 263.59 256.07 268.86 249.93 274.26 243.84 279.54 237.62 284.98 231.46 290.55 225.43 296.04 219.32 301.68 213.38 307.48 207.66 313.21 201.98 319.12 196.6 325.21 191.59 331.24 186.73 337.47 182.34 343.89 178.47 350.27 174.89 356.87 171.92 363.67 169.62 370.45 167.7 377.45 166.5 384.67 166.05 391.88 166 399.32 166.71 406.99 168.18" stroke-dasharray="17 5" transform="rotate(43.68421052631579, 400, 400)" opacity="0.55"></path><path d="M411.06 179.34C418.39 181.09 425.76 183.45 433.15 186.33 440.54 189.39 447.95 192.89 455.36 196.74 462.78 200.61 470.18 204.74 477.55 209.07 484.91 213.29 492.22 217.64 499.44 222.06 506.63 226.28 513.7 230.54 520.62 234.81 527.47 238.83 534.13 242.86 540.54 246.9 546.83 250.68 552.82 254.48 558.47 258.32 566.48 263.78 579.95 274.84 585.23 280.57 589.54 286.28 594.83 298.55 595.8 305.2 595.88 312.02 593.32 326.93 590.96 335.03 589.34 340.5 587.49 346.25 585.46 352.27 583.72 358.27 581.94 364.54 580.2 371.07 578.91 377.6 577.76 384.39 576.8 391.45 576.41 398.5 576.25 405.66 576.3 412.9 576.88 420.14 577.6 427.48 578.42 434.9 579.64 442.34 580.85 449.86 581.97 457.45 583.31 465.07 584.44 472.76 585.3 480.5 586.21 488.26 586.74 496.07 586.83 503.88 586.83 511.7 586.33 519.51 585.31 527.25 584.1 534.95 582.33 542.54 580.01 549.95 577.47 557.25 574.38 564.29 570.77 571.01 566.94 577.51 562.63 583.59 557.87 589.17 552.92 594.42 547.57 599.08 541.87 603.07 536.03 606.63 529.89 609.46 523.48 611.5 516.99 613.07 510.28 613.84 503.39 613.8 496.45 613.33 489.37 612.12 482.19 610.18 474.99 607.98 467.7 605.2 460.35 601.92 453.01 598.65 445.62 595.07 438.21 591.29 430.8 587.82 423.38 584.37 415.97 581.05 408.55 578.32 401.31 575.92 394.25 573.9 387.17 572.58 380.28 571.64 373.55 571.05 366.81 571.11 360.22 571.43 353.81 571.95 347.35 572.93 341.05 573.96 334.9 574.95 328.7 576.18 322.64 577.21 316.71 577.95 307.79 578.9 290.45 578.32 282.03 576.56 276.37 574.96 270.83 572.77 265.42 570 259.94 566.97 254.58 563.37 249.38 559.24 244.11 554.88 239.01 550.04 234.09 544.76 229.14 539.29 224.39 533.45 219.89 527.28 215.39 520.99 211.16 514.43 207.22 507.65 203.35 500.79 199.81 493.77 196.63 486.62 193.57 479.43 190.91 472.15 188.69 464.81 186.62 457.46 185.02 450.08 183.92 442.69 183 435.3 182.59 427.91 182.72 420.54 183.05 413.18 183.9 406.01 185.25 399.03 186.76 392.05 188.74 385.26 191.15 378.65 193.67 372.02 196.59 365.56 199.87 359.27 203.22 352.92 206.88 346.72 210.83 340.66 214.79 334.52 219 328.49 223.43 322.56 227.83 316.54 232.42 310.58 237.19 304.7 241.88 298.69 246.73 292.72 251.72 286.8 256.62 280.75 261.65 274.72 266.8 268.74 271.86 262.64 277.04 256.58 282.34 250.59 287.55 244.5 292.89 238.52 298.35 232.67 303.74 226.79 309.26 221.11 314.93 215.66 320.53 210.28 326.3 205.2 332.22 200.5 338.08 195.98 344.13 191.9 350.35 188.33 356.53 185.05 362.9 182.34 369.46 180.27 375.99 178.54 382.73 177.5 389.66 177.15 396.58 177.18 403.71 177.9 411.05 179.34" stroke-dasharray="16 1" transform="rotate(45.86842105263158, 400, 400)" opacity="0.58"></path><path d="M414.57 190.5C421.55 192.19 428.55 194.44 435.54 197.19 442.54 200.11 449.53 203.44 456.49 207.11 463.46 210.83 470.38 214.81 477.25 218.99 484.09 223.09 490.86 227.34 497.52 231.68 504.13 235.85 510.61 240.08 516.9 244.35 523.13 248.4 529.14 252.47 534.88 256.56 540.52 260.42 545.85 264.31 550.83 268.22 557.87 273.82 569.54 285.08 574.02 290.86 577.67 296.57 582 308.67 582.69 315.14 582.67 321.74 580.31 336.02 578.21 343.75 576.81 348.95 575.2 354.42 573.44 360.13 571.93 365.83 570.39 371.79 568.87 378 567.75 384.21 566.73 390.67 565.86 397.39 565.48 404.12 565.28 410.94 565.24 417.86 565.67 424.78 566.21 431.79 566.83 438.88 567.8 445.98 568.76 453.15 569.64 460.38 570.74 467.63 571.65 474.93 572.34 482.25 573.11 489.58 573.54 496.91 573.62 504.23 573.64 511.52 573.23 518.75 572.36 525.89 571.37 532.95 569.88 539.86 567.91 546.56 565.76 553.11 563.12 559.39 560 565.33 556.71 571.04 552.96 576.32 548.79 581.11 544.47 585.59 539.75 589.5 534.68 592.79 529.5 595.7 524 597.94 518.22 599.46 512.37 600.59 506.28 601.01 499.99 600.71 493.65 600.07 487.15 598.78 480.51 596.86 473.85 594.75 467.07 592.13 460.22 589.08 453.35 586.07 446.42 582.78 439.44 579.32 432.46 576.15 425.44 572.98 418.4 569.89 411.35 567.33 404.45 565.04 397.7 563.05 390.94 561.68 384.32 560.63 377.85 559.87 371.36 559.69 365.01 559.73 358.8 559.94 352.56 560.6 346.45 561.3 340.47 561.98 334.45 562.93 328.54 563.72 322.76 564.28 314.06 565.08 297.15 564.71 288.92 563.31 280.72 561.17 264.83 554.01 257.18 549.02 252.1 545.34 247.17 541.2 242.43 536.64 237.68 531.92 233.13 526.82 228.81 521.39 224.52 515.84 220.48 510.01 216.74 503.93 213.07 497.77 209.71 491.42 206.71 484.9 203.82 478.34 201.32 471.65 199.23 464.86 197.29 458.06 195.79 451.19 194.76 444.26 193.9 437.33 193.53 430.37 193.67 423.38 193.99 416.4 194.8 409.55 196.09 402.87 197.53 396.17 199.41 389.62 201.7 383.22 204.1 376.79 206.89 370.5 210.01 364.33 213.21 358.12 216.71 352.02 220.49 346.03 224.3 339.97 228.35 333.99 232.62 328.1 236.87 322.12 241.31 316.19 245.93 310.33 250.49 304.36 255.21 298.43 260.07 292.55 264.85 286.57 269.77 280.62 274.81 274.73 279.76 268.74 284.84 262.83 290.03 257 295.13 251.11 300.36 245.35 305.71 239.74 310.98 234.14 316.39 228.74 321.92 223.6 327.39 218.54 333 213.8 338.75 209.43 344.45 205.24 350.31 201.49 356.32 198.23 362.3 195.24 368.45 192.79 374.76 190.94 381.05 189.41 387.51 188.51 394.15 188.27 400.77 188.36 407.58 189.1 414.56 190.5" stroke-dasharray="4 20" transform="rotate(48.05263157894737, 400, 400)" opacity="0.60"></path><path d="M417.38 201.66C423.99 203.28 430.6 205.42 437.17 208.03 443.75 210.8 450.3 213.96 456.79 217.45 463.29 221 469.71 224.8 476.05 228.82 482.38 232.78 488.59 236.9 494.67 241.12 500.71 245.22 506.58 249.4 512.26 253.62 517.87 257.66 523.25 261.75 528.36 265.85 535.72 271.74 548.58 283.39 553.94 289.2 558.63 294.84 565.5 306.41 567.63 312.41 569.06 318.43 569.49 331.21 568.63 338.04 567.39 345.01 563.69 360.01 561.48 368.06 560.21 373.49 558.89 379.16 557.56 385.07 556.6 390.97 555.71 397.11 554.91 403.49 554.55 409.88 554.32 416.36 554.21 422.92 554.51 429.49 554.88 436.13 555.31 442.84 556.06 449.55 556.78 456.33 557.44 463.13 558.3 469.94 559.01 476.78 559.53 483.62 560.14 490.44 560.46 497.24 560.48 503.98 560.49 510.68 560.12 517.29 559.37 523.76 558.53 530.14 557.26 536.34 555.56 542.3 552.6 550.87 544.32 565.99 539.06 572.3 533.22 577.68 519.64 585.15 512.02 587.09 504.03 587.92 486.87 586.07 477.81 583.54 471.7 581.54 465.45 579.1 459.09 576.29 452.72 573.53 446.26 570.54 439.72 567.38 433.19 564.49 426.58 561.58 419.93 558.73 413.28 556.34 406.73 554.16 400.3 552.22 393.87 550.82 387.55 549.68 381.35 548.77 375.14 548.38 369.04 548.18 363.06 548.12 354.1 548.66 336.68 550.17 328.21 550.81 319.78 551.39 303.36 551.02 295.38 549.86 287.44 548.12 272.1 542.18 264.74 537.99 259.85 534.89 255.13 531.36 250.6 527.44 246.06 523.39 241.73 518.97 237.62 514.22 233.55 509.36 229.73 504.21 226.2 498.8 222.73 493.32 219.58 487.61 216.76 481.72 214.05 475.78 211.71 469.68 209.76 463.45 207.95 457.2 206.55 450.84 205.6 444.39 204.81 437.94 204.47 431.41 204.62 424.83 204.93 418.24 205.7 411.75 206.92 405.36 208.28 398.97 210.06 392.69 212.22 386.5 214.5 380.3 217.13 374.2 220.1 368.18 223.13 362.14 226.46 356.17 230.07 350.28 233.7 344.34 237.57 338.46 241.66 332.64 245.74 326.75 250.01 320.91 254.46 315.12 258.87 309.25 263.43 303.42 268.13 297.64 272.78 291.79 277.56 285.98 282.45 280.24 287.28 274.45 292.23 268.73 297.28 263.12 302.27 257.49 307.37 252 312.58 246.68 317.73 241.39 322.99 236.32 328.37 231.51 333.69 226.81 339.14 222.42 344.71 218.39 350.24 214.55 355.9 211.13 361.7 208.18 367.47 205.48 373.38 203.29 379.42 201.65 385.46 200.31 391.64 199.55 397.97 199.4 404.28 199.55 410.76 200.3 417.37 201.66" stroke-dasharray="3 4" transform="rotate(50.23684210526316, 400, 400)" opacity="0.63"></path><path d="M419.34 212.82C431.79 216.12 444.12 221.24 456.15 227.76 468.15 234.5 479.79 242.17 490.84 250.41 501.73 258.27 511.87 266.45 520.98 274.77 529.72 282.46 537.23 290.31 543.27 298.32 548.76 305.75 552.67 313.52 554.88 321.68 556.62 329.47 556.83 337.86 555.62 346.87 554.45 355.72 552.36 365.34 549.6 375.74 547.71 386.09 545.77 397.31 543.96 409.39 543.65 421.46 543.65 433.87 543.86 446.43 545.22 459 546.31 471.71 546.87 484.31 547.83 496.81 547.72 509.06 546.38 520.7 544.83 531.98 541.75 542.33 537.19 551.36 532.18 559.59 525.69 566.12 517.89 570.59 509.73 573.99 500.42 575.2 490.19 574.17 479.78 572.35 468.62 568.7 456.92 563.55 445.17 558.66 432.98 553.18 420.49 547.57 408 543.55 395.81 540.25 384.01 537.76 372.17 537.05 360.66 536.81 349.56 536.75 338.35 537.71 327.47 538.15 317 537.73 306.39 537.43 296.15 535.76 286.39 532.6 276.55 529.06 267.22 523.92 258.6 517.28 250.04 510.22 242.3 501.82 235.6 492.3 229.2 482.54 224.02 471.87 220.28 460.52 217.06 449.11 215.43 437.14 215.56 424.79 216.32 412.44 218.77 400.29 222.73 388.44 227.1 376.54 232.79 364.85 239.55 353.41 246.46 341.82 254.27 330.37 262.78 319.12 271.21 307.67 280.25 296.37 289.74 285.36 299.04 274.25 308.8 263.55 318.93 253.53 328.87 243.73 339.25 234.9 350.02 227.41 360.66 220.62 371.79 215.51 383.35 212.4 394.86 210.35 406.87 210.45 419.33 212.82" stroke-dasharray="19 23" transform="rotate(52.421052631578945, 400, 400)" opacity="0.65"></path><path d="M420.36 223.98C432.01 227.1 443.43 231.91 454.49 238.03 465.51 244.39 476.09 251.67 486.03 259.55 495.81 267.16 504.81 275.14 512.81 283.32 520.49 290.98 527 298.84 532.16 306.83 536.89 314.34 540.21 322.14 542.05 330.24 543.56 338.02 543.75 346.28 542.73 355.05 541.82 363.66 540.11 372.93 537.8 382.86 536.27 392.73 534.62 403.36 533.02 414.72 532.68 426.08 532.53 437.67 532.49 449.32 533.46 460.96 534.15 472.62 534.38 484.07 535.03 495.39 534.77 506.34 533.46 516.61 532.05 526.5 529.34 535.42 525.33 543.05 520.99 549.96 515.33 555.29 508.46 558.76 501.29 561.36 493.03 562.04 483.87 560.78 474.54 558.95 464.43 555.55 453.72 550.86 442.97 546.48 431.7 541.53 420.06 536.41 408.41 532.66 396.95 529.43 385.78 526.83 374.59 525.75 363.64 525.06 353.03 524.51 342.35 524.93 331.95 524.94 321.92 524.28 311.8 523.85 302.04 522.3 292.74 519.5 283.41 516.49 274.6 512.08 266.47 506.33 258.44 500.28 251.2 492.97 244.97 484.57 239.03 475.96 234.24 466.42 230.8 456.13 227.84 445.78 226.36 434.78 226.51 423.28 227.22 411.78 229.52 400.33 233.21 389.04 237.29 377.73 242.61 366.51 248.96 355.47 255.47 344.32 262.85 333.28 270.92 322.42 278.95 311.44 287.58 300.63 296.66 290.16 305.61 279.68 315 269.66 324.73 260.35 334.32 251.32 344.31 243.26 354.63 236.49 364.84 230.4 375.47 225.87 386.43 223.19 397.36 221.46 408.69 221.68 420.35 223.97" stroke-dasharray="5 4" transform="rotate(54.60526315789474, 400, 400)" opacity="0.68"></path><path d="M420.38 235.13C431.2 238.08 441.72 242.56 451.8 248.27 461.84 254.23 471.38 261.08 480.26 268.55 488.99 275.85 496.94 283.55 503.92 291.5 510.64 299.05 516.28 306.81 520.69 314.73 524.79 322.24 527.63 330 529.19 338.01 530.55 345.73 530.78 353.85 529.97 362.38 529.32 370.76 527.96 379.67 526.07 389.13 524.86 398.53 523.49 408.55 522.07 419.17 521.73 429.79 521.44 440.52 521.19 451.21 521.81 461.88 522.15 472.45 522.08 482.7 522.41 492.82 521.98 502.47 520.65 511.38 519.32 519.94 516.87 527.53 513.3 533.87 509.51 539.6 504.54 543.88 498.48 546.51 492.2 548.45 484.89 548.73 476.7 547.35 468.38 545.57 459.27 542.46 449.54 538.23 439.76 534.33 429.42 529.91 418.64 525.25 407.86 521.77 397.17 518.64 386.69 515.97 376.19 514.6 365.87 513.51 355.82 512.54 345.73 512.45 335.88 512.03 326.37 511.09 316.81 510.46 307.59 508.91 298.82 506.34 290.06 503.68 281.81 499.82 274.22 494.8 266.76 489.57 260.06 483.18 254.31 475.77 248.84 468.2 244.45 459.7 241.32 450.41 238.63 441.06 237.29 431.02 237.46 420.38 238.13 409.74 240.26 399.04 243.68 388.39 247.46 377.74 252.4 367.09 258.3 356.56 264.38 345.98 271.3 335.46 278.87 325.13 286.46 314.74 294.63 304.56 303.25 294.74 311.77 284.99 320.73 275.72 330 267.19 339.17 258.98 348.7 251.71 358.51 245.67 368.24 240.26 378.31 236.3 388.64 234.03 398.95 232.59 409.56 232.92 420.38 235.13" stroke-dasharray="17 24" transform="rotate(56.78947368421053, 400, 400)" opacity="0.70"></path><path d="M419.41 246.29C429.38 249.05 438.98 253.2 448.1 258.48 457.19 264.02 465.73 270.41 473.6 277.43 481.35 284.34 488.34 291.7 494.41 299.33 500.28 306.67 505.16 314.25 508.96 321.99 512.52 329.41 515 337.06 516.37 344.91 517.64 352.52 517.94 360.45 517.35 368.7 516.95 376.82 515.93 385.36 514.41 394.32 513.5 403.23 512.37 412.63 511.12 422.48 510.77 432.33 510.39 442.17 509.96 451.87 510.27 461.54 510.31 471 509.96 480.06 510 488.99 509.38 497.38 508 505.01 506.69 512.32 504.43 518.68 501.2 523.87 495.65 530.27 479.35 535.32 468.83 533.9 461.43 532.23 453.27 529.42 444.47 525.66 435.64 522.22 426.22 518.29 416.32 514.1 406.42 510.88 396.54 507.87 386.78 505.18 377.03 503.59 367.39 502.17 357.97 500.83 348.54 500.28 339.31 499.47 330.39 498.23 321.46 497.34 312.84 495.72 304.67 493.26 296.54 490.81 288.89 487.35 281.89 482.89 275.02 478.31 268.88 472.7 263.63 466.14 258.65 459.46 254.67 451.9 251.85 443.55 249.42 435.15 248.23 426.03 248.4 416.27 249.03 406.51 250.99 396.6 254.13 386.66 257.6 376.73 262.15 366.75 267.59 356.85 273.21 346.93 279.63 337.07 286.68 327.39 293.77 317.71 301.43 308.26 309.51 299.2 317.55 290.25 326 281.82 334.74 274.11 343.43 266.73 352.43 260.27 361.66 254.95 370.85 250.21 380.31 246.8 389.96 244.91 399.6 243.75 409.45 244.18 419.41 246.29" stroke-dasharray="16 8" transform="rotate(58.973684210526315, 400, 400)" opacity="0.72"></path><path d="M417.5 257.45C426.6 260.01 435.29 263.83 443.47 268.67 451.63 273.76 459.23 279.67 466.17 286.18 473.01 292.66 479.13 299.59 484.4 306.83 489.53 313.87 493.77 321.16 497.05 328.63 500.19 335.85 502.39 343.29 503.64 350.9 504.85 358.32 505.25 365.99 504.88 373.9 504.72 381.71 504 389.83 502.83 398.26 502.17 406.65 501.27 415.4 500.18 424.45 499.83 433.51 499.37 442.44 498.8 451.14 498.85 459.8 498.62 468.17 498.03 476.07 497.81 483.85 497.01 491.05 495.57 497.49 493.16 506.3 484.16 518.28 477.45 521 472.58 522.03 466.87 521.84 460.39 520.46 453.84 518.94 446.56 516.46 438.66 513.16 430.73 510.16 422.21 506.7 413.2 502.94 404.2 499.99 395.14 497.14 386.17 494.47 377.19 492.71 368.3 491.04 359.57 489.4 350.86 488.45 342.31 487.27 334.05 485.76 325.81 484.6 317.87 482.84 310.34 480.41 302.88 478.06 295.89 474.88 289.5 470.84 283.26 466.76 277.69 461.78 272.96 455.94 268.47 450.04 264.9 443.31 262.38 435.82 260.21 428.3 259.16 420.06 259.35 411.18 259.93 402.3 261.72 393.22 264.57 384.07 267.73 374.92 271.86 365.71 276.83 356.54 281.97 347.38 287.86 338.28 294.35 329.36 300.9 320.5 307.99 311.87 315.48 303.65 322.98 295.58 330.86 288.02 339.01 281.17 347.13 274.64 355.54 268.97 364.14 264.36 372.72 260.27 381.51 257.37 390.43 255.84 399.35 254.93 408.4 255.44 417.5 257.45" stroke-dasharray="12 21" transform="rotate(61.1578947368421, 400, 400)" opacity="0.75"></path><path d="M414.74 268.61C422.95 270.97 430.74 274.44 438.03 278.84 445.29 283.47 452.01 288.86 458.1 294.84 464.11 300.82 469.45 307.27 474.03 314.03 478.51 320.66 482.21 327.58 485.08 334.66 487.86 341.59 489.85 348.71 491.04 355.97 492.23 363.1 492.73 370.43 492.58 377.93 492.63 385.35 492.19 393.01 491.32 400.85 490.87 408.68 490.17 416.74 489.23 424.98 488.89 433.21 488.38 441.23 487.71 448.94 487.55 456.62 487.1 463.92 486.31 470.73 485.37 480.48 480.98 496.22 477.2 501.74 472.69 505.86 459.84 508.49 451.57 507.07 445.78 505.73 439.32 503.58 432.27 500.71 425.19 498.14 417.56 495.12 409.44 491.78 401.33 489.1 393.13 486.42 384.96 483.82 376.81 481.96 368.7 480.11 360.73 478.24 352.79 476.96 344.99 475.48 337.45 473.71 329.95 472.28 322.73 470.38 315.9 467.93 309.15 465.61 302.84 462.6 297.09 458.89 291.49 455.17 286.51 450.7 282.29 445.48 278.31 440.23 275.14 434.23 272.92 427.54 271.01 420.82 270.1 413.44 270.3 405.44 270.83 397.43 272.44 389.21 275.01 380.89 277.84 372.59 281.56 364.2 286.04 355.86 290.69 347.55 296.02 339.29 301.91 331.24 307.89 323.26 314.36 315.53 321.22 308.2 328.11 301.05 335.35 294.39 342.85 288.41 350.35 282.72 358.09 277.84 366 273.92 373.9 270.44 381.98 268.03 390.13 266.83 398.28 266.15 406.52 266.72 414.74 268.61" stroke-dasharray="17 20" transform="rotate(63.3421052631579, 400, 400)" opacity="0.78"></path><path d="M411.25 279.77C418.59 281.91 425.5 285.04 431.93 288.99 438.34 293.15 444.23 298.01 449.54 303.41 454.8 308.85 459.45 314.75 463.44 320.96 467.36 327.11 470.6 333.54 473.14 340.15 475.64 346.66 477.46 353.35 478.61 360.17 479.81 366.9 480.41 373.79 480.46 380.79 480.69 387.74 480.48 394.85 479.87 402.06 479.62 409.26 479.08 416.6 478.28 424 477.96 431.4 477.41 438.52 476.68 445.26 476.04 455.14 473.59 472.35 471.48 479.34 465.21 489.24 449.88 495.02 442.56 493.73 437.44 492.6 431.74 490.78 425.5 488.34 419.23 486.15 412.46 483.55 405.22 480.62 397.99 478.21 390.66 475.73 383.34 473.24 376.03 471.33 368.75 469.37 361.58 467.36 354.45 465.82 347.44 464.1 340.68 462.13 333.95 460.48 327.49 458.43 321.4 455.95 315.39 453.61 309.78 450.71 304.69 447.25 299.74 443.82 295.36 439.75 291.66 435.06 288.17 430.35 285.4 425.01 283.48 419.05 281.82 413.08 281.05 406.5 281.24 399.36 281.73 392.22 283.16 384.88 285.44 377.44 287.95 370.02 291.25 362.52 295.23 355.08 299.37 347.67 304.14 340.33 309.41 333.2 314.77 326.16 320.59 319.37 326.78 312.98 333 306.76 339.56 301.01 346.35 295.89 353.15 291.03 360.18 286.9 367.35 283.63 374.51 280.73 381.82 278.78 389.16 277.88 396.52 277.4 403.91 278.01 411.25 279.77" stroke-dasharray="4 22" transform="rotate(65.52631578947368, 400, 400)" opacity="0.80"></path><path d="M407.22 290.93C413.68 292.85 419.74 295.63 425.35 299.13 430.95 302.81 436.08 307.11 440.68 311.91 445.26 316.78 449.3 322.07 452.77 327.67 456.2 333.26 459.06 339.12 461.32 345.15 463.58 351.14 465.28 357.3 466.41 363.57 467.6 369.79 468.3 376.14 468.52 382.56 468.9 388.94 468.88 395.43 468.5 401.95 468.4 408.46 468.01 415.04 467.34 421.6 466.75 431.27 464.88 448.7 463.47 456.27 459.77 468.56 450.27 480.12 445.4 481.28 439.99 481.58 426.54 478.82 418.55 476.03 413.06 474.21 407.11 472.01 400.75 469.46 394.38 467.33 387.93 465.06 381.47 462.72 375.02 460.82 368.59 458.83 362.27 456.74 355.97 455.04 349.79 453.15 343.83 451.05 335.09 448.14 319.21 440.79 312.35 436.13 306.16 431.07 296.88 418.36 294.06 410.7 292.64 405.42 291.99 399.61 292.19 393.33 292.62 387.04 293.88 380.57 295.87 374.04 298.06 367.53 300.94 360.96 304.43 354.45 308.05 347.99 312.23 341.61 316.86 335.44 321.59 329.36 326.74 323.54 332.21 318.09 337.73 312.79 343.56 307.94 349.6 303.65 355.66 299.6 361.92 296.18 368.29 293.52 374.68 291.16 381.18 289.62 387.69 288.98 394.22 288.68 400.76 289.31 407.22 290.93" stroke-dasharray="17 20" transform="rotate(67.71052631578947, 400, 400)" opacity="0.82"></path><path d="M402.83 302.09C414.02 305.71 423.75 312.1 431.71 320.38 439.58 328.94 445.65 338.98 449.71 349.76 453.82 360.46 456.17 371.84 456.76 383.34 457.89 394.79 457.77 406.49 456.39 417.9 456.1 429.32 454.72 439.3 452.36 447.46 449.16 458.4 435.6 468.5 424.69 467.36 416.83 466.03 407.25 462.93 396.24 458.3 385.22 454.91 373.9 450.84 362.94 446.39 352.09 443.1 341.72 438.95 332.52 433.84 323.6 429.25 316.05 423.14 310.55 415.5 305.6 407.93 302.94 398.6 303.14 387.69 304.07 376.78 307.78 365.39 313.63 354.26 319.95 343.28 328.16 332.8 337.59 323.63 347.22 314.98 357.9 308.04 368.99 303.6 380.15 300.1 391.64 299.43 402.83 302.09" stroke-dasharray="18 15" transform="rotate(69.89473684210526, 400, 400)" opacity="0.85"></path><path d="M398.31 313.24C407.8 316.36 416.05 321.78 422.81 328.82 429.53 336.12 434.78 344.76 438.4 354.07 442.11 363.39 444.39 373.32 445.19 383.32 446.43 393.32 446.54 403.43 445.44 413.15 445.14 422.86 443.75 431.2 441.44 437.89 438.17 446.89 425.72 455.16 416.21 454.37 409.43 453.43 401.25 450.98 391.91 447.14 382.56 444.2 373 440.48 363.77 436.29 354.63 432.94 345.94 428.79 338.28 423.88 330.85 419.38 324.6 413.71 320.1 406.89 316.03 400.15 313.86 392.06 314.08 382.78 314.87 373.5 317.97 363.95 322.87 354.72 328.14 345.63 335.03 337.07 342.98 329.7 351.12 322.73 360.17 317.25 369.58 313.88 379.06 311.2 388.82 310.85 398.31 313.24" stroke-dasharray="8 2" transform="rotate(72.07894736842105, 400, 400)" opacity="0.88"></path><path d="M393.87 324.4C401.69 327 408.52 331.47 414.16 337.25 419.79 343.27 424.27 350.43 427.46 358.18 430.74 365.99 432.89 374.33 433.82 382.72 435.07 391.12 435.33 399.57 434.5 407.6 433.53 419.04 427.53 435.13 422.36 439.35 416.37 441.97 399.09 440.01 387.97 435.99 380.26 433.51 372.42 430.22 364.91 426.43 357.46 423.2 350.43 419.26 344.27 414.7 338.28 410.45 333.3 405.31 329.74 399.34 326.49 393.46 324.8 386.59 325.03 378.9 325.67 371.21 328.17 363.45 332.15 356.08 336.4 348.8 341.99 342.06 348.47 336.37 355.09 330.96 362.5 326.81 370.23 324.37 378.01 322.41 386.05 322.31 393.87 324.4" stroke-dasharray="21 20" transform="rotate(74.26315789473685, 400, 400)" opacity="0.90"></path><path d="M389.73 335.56C395.92 337.64 401.38 341.16 405.94 345.71 410.5 350.44 414.2 356.08 416.93 362.23 419.74 368.44 421.67 375.09 422.64 381.79 423.82 388.5 424.16 395.24 423.55 401.61 422.68 410.66 417.27 423.34 412.77 426.74 407.64 428.98 393.48 427.89 384.62 424.83 378.5 422.82 372.35 420.06 366.5 416.79 360.7 413.88 355.27 410.34 350.55 406.32 344.05 400.26 336.38 385.22 335.98 376.28 336.47 370.15 338.41 364.11 341.49 358.49 344.75 352.92 349.08 347.88 354.12 343.7 359.26 339.71 365.04 336.73 371.1 335.08 377.2 333.73 383.53 333.81 389.73 335.56" stroke-dasharray="17 16" transform="rotate(76.44736842105263, 400, 400)" opacity="0.92"></path><path d="M386.09 346.72C395.3 350.02 402.51 357.34 406.87 366.33 411.45 375.53 413.62 386.05 412.6 395.52 412.32 404.98 409.02 411.49 403.72 414.41 398.68 417.46 391.14 417.33 382.02 413.67 372.9 410.86 363.99 405.43 357.19 398.72 350.68 392.46 346.68 384.24 346.92 375.07 347.79 365.9 352.77 357.52 360 351.74 367.5 346.37 376.87 344.19 386.09 346.72" stroke-dasharray="13 4" transform="rotate(78.63157894736841, 400, 400)" opacity="0.95"></path><path d="M383.12 357.88C395.31 362.5 403.13 377.18 401.66 389.69 401.45 402.2 392.4 407.47 380.3 402.51 368.18 399.04 357.68 387.57 357.87 375.34 359.19 363.1 370.92 354.64 383.12 357.88" stroke-dasharray="21 8" transform="rotate(80.81578947368422, 400, 400)" opacity="0.97"></path></g></svg>